<svg width="534" height="373" viewBox="0 0 534 373" fill="none" xmlns="http://www.w3.org/2000/svg">
<g id="Card Empresa" filter="url(#filter0_d_1_6932)">
<rect width="533.333" height="373" rx="8" fill="white" shape-rendering="crispEdges"/>
<g id="Frame 35">
<path d="M0 8C0 3.58172 3.58172 0 8 0H525.333C529.752 0 533.333 3.58172 533.333 8V67H0V8Z" fill="#181C4F"/>
<g id="Frame 22">
<path id="Nome da Empresa" d="M207.449 18.5078C207.389 17.9496 207.138 17.5149 206.695 17.2038C206.256 16.8928 205.685 16.7372 204.982 16.7372C204.488 16.7372 204.063 16.8118 203.71 16.9609C203.356 17.1101 203.086 17.3125 202.898 17.5682C202.711 17.8239 202.615 18.1158 202.61 18.4439C202.61 18.7166 202.672 18.9531 202.796 19.1534C202.924 19.3537 203.096 19.5241 203.313 19.6648C203.531 19.8011 203.772 19.9162 204.036 20.0099C204.3 20.1037 204.566 20.1825 204.835 20.2464L206.062 20.5533C206.556 20.6683 207.032 20.8239 207.488 21.0199C207.948 21.2159 208.359 21.4631 208.721 21.7614C209.088 22.0597 209.377 22.4197 209.59 22.8416C209.804 23.2635 209.91 23.7578 209.91 24.3246C209.91 25.0916 209.714 25.767 209.322 26.3509C208.93 26.9304 208.363 27.3842 207.622 27.7124C206.885 28.0362 205.992 28.1982 204.943 28.1982C203.925 28.1982 203.041 28.0405 202.291 27.7251C201.545 27.4098 200.961 26.9496 200.539 26.3445C200.122 25.7393 199.896 25.0021 199.862 24.1328H202.195C202.229 24.5888 202.37 24.968 202.617 25.2706C202.864 25.5732 203.186 25.799 203.582 25.9482C203.983 26.0973 204.43 26.1719 204.924 26.1719C205.44 26.1719 205.892 26.0952 206.279 25.9418C206.671 25.7841 206.978 25.5668 207.2 25.2898C207.421 25.0085 207.534 24.6804 207.539 24.3054C207.534 23.9645 207.434 23.6832 207.238 23.4616C207.042 23.2358 206.767 23.0483 206.414 22.8991C206.064 22.7457 205.655 22.6094 205.186 22.4901L203.697 22.1065C202.619 21.8295 201.767 21.4098 201.14 20.8473C200.518 20.2805 200.207 19.5284 200.207 18.5909C200.207 17.8196 200.416 17.1442 200.833 16.5646C201.255 15.9851 201.828 15.5355 202.553 15.2159C203.277 14.892 204.098 14.7301 205.014 14.7301C205.943 14.7301 206.757 14.892 207.456 15.2159C208.159 15.5355 208.711 15.9808 209.111 16.5518C209.512 17.1186 209.718 17.7706 209.731 18.5078H207.449ZM216.205 28.1918C215.225 28.1918 214.383 27.9766 213.68 27.5462C212.981 27.1158 212.442 26.5213 212.063 25.7628C211.688 25 211.5 24.1222 211.5 23.1293C211.5 22.1321 211.692 21.2521 212.075 20.4893C212.459 19.7223 213 19.1257 213.699 18.6996C214.402 18.2692 215.233 18.054 216.192 18.054C216.989 18.054 217.694 18.201 218.308 18.495C218.926 18.7848 219.418 19.196 219.784 19.7287C220.151 20.2571 220.359 20.875 220.411 21.5824H218.199C218.109 21.1094 217.896 20.7152 217.56 20.3999C217.227 20.0803 216.782 19.9205 216.224 19.9205C215.751 19.9205 215.335 20.0483 214.977 20.304C214.619 20.5554 214.34 20.9176 214.14 21.3906C213.944 21.8636 213.846 22.4304 213.846 23.0909C213.846 23.7599 213.944 24.3352 214.14 24.8168C214.336 25.294 214.611 25.6626 214.965 25.9226C215.323 26.1783 215.742 26.3061 216.224 26.3061C216.565 26.3061 216.869 26.2422 217.138 26.1143C217.411 25.9822 217.639 25.7926 217.822 25.5455C218.005 25.2983 218.131 24.9979 218.199 24.6442H220.411C220.355 25.3388 220.151 25.9545 219.797 26.4915C219.443 27.0241 218.962 27.4418 218.352 27.7443C217.743 28.0426 217.027 28.1918 216.205 28.1918ZM226.593 28.1918C225.635 28.1918 224.804 27.9808 224.1 27.5589C223.397 27.1371 222.852 26.5469 222.464 25.7884C222.081 25.0298 221.889 24.1435 221.889 23.1293C221.889 22.1151 222.081 21.2266 222.464 20.4638C222.852 19.701 223.397 19.1087 224.1 18.6868C224.804 18.2649 225.635 18.054 226.593 18.054C227.552 18.054 228.383 18.2649 229.086 18.6868C229.789 19.1087 230.333 19.701 230.716 20.4638C231.104 21.2266 231.298 22.1151 231.298 23.1293C231.298 24.1435 231.104 25.0298 230.716 25.7884C230.333 26.5469 229.789 27.1371 229.086 27.5589C228.383 27.9808 227.552 28.1918 226.593 28.1918ZM226.606 26.3381C227.126 26.3381 227.561 26.1953 227.91 25.9098C228.26 25.62 228.519 25.2322 228.69 24.7464C228.865 24.2607 228.952 23.7195 228.952 23.1229C228.952 22.522 228.865 21.9787 228.69 21.4929C228.519 21.0028 228.26 20.6129 227.91 20.3232C227.561 20.0334 227.126 19.8885 226.606 19.8885C226.073 19.8885 225.63 20.0334 225.277 20.3232C224.927 20.6129 224.665 21.0028 224.49 21.4929C224.32 21.9787 224.235 22.522 224.235 23.1229C224.235 23.7195 224.32 24.2607 224.49 24.7464C224.665 25.2322 224.927 25.62 225.277 25.9098C225.63 26.1953 226.073 26.3381 226.606 26.3381ZM233.262 28V18.1818H235.505V19.8182H235.608C235.787 19.2514 236.094 18.8146 236.528 18.5078C236.967 18.1967 237.468 18.0412 238.03 18.0412C238.158 18.0412 238.301 18.0476 238.459 18.0604C238.62 18.0689 238.755 18.0838 238.861 18.1051V20.2337C238.763 20.1996 238.608 20.1697 238.395 20.1442C238.186 20.1143 237.983 20.0994 237.787 20.0994C237.366 20.0994 236.986 20.1911 236.65 20.3743C236.317 20.5533 236.055 20.8026 235.863 21.1222C235.672 21.4418 235.576 21.8104 235.576 22.228V28H233.262ZM244.341 28.1918C243.356 28.1918 242.506 27.9872 241.79 27.5781C241.079 27.1648 240.531 26.581 240.148 25.8267C239.764 25.0682 239.572 24.1754 239.572 23.1484C239.572 22.1385 239.764 21.2521 240.148 20.4893C240.535 19.7223 241.077 19.1257 241.771 18.6996C242.466 18.2692 243.282 18.054 244.219 18.054C244.825 18.054 245.396 18.152 245.932 18.348C246.474 18.5398 246.951 18.8381 247.364 19.2429C247.782 19.6477 248.11 20.1634 248.349 20.7898C248.587 21.4119 248.707 22.1534 248.707 23.0142V23.7237H240.659V22.1641H246.489C246.484 21.7209 246.388 21.3267 246.201 20.9815C246.013 20.6321 245.751 20.3572 245.415 20.157C245.082 19.9567 244.695 19.8565 244.251 19.8565C243.778 19.8565 243.363 19.9716 243.005 20.2017C242.647 20.4276 242.368 20.7259 242.168 21.0966C241.972 21.4631 241.871 21.8658 241.867 22.3047V23.6662C241.867 24.2372 241.972 24.7273 242.18 25.1364C242.389 25.5412 242.681 25.8523 243.056 26.0696C243.431 26.2827 243.87 26.3892 244.373 26.3892C244.709 26.3892 245.014 26.3423 245.287 26.2486C245.56 26.1506 245.796 26.0078 245.996 25.8203C246.197 25.6328 246.348 25.4006 246.45 25.1236L248.611 25.3665C248.474 25.9375 248.214 26.4361 247.831 26.8622C247.452 27.2841 246.966 27.6122 246.374 27.8466C245.781 28.0767 245.104 28.1918 244.341 28.1918ZM259.536 19.0895C259.43 18.7443 259.283 18.4354 259.095 18.1626C258.912 17.8857 258.69 17.6491 258.431 17.4531C258.175 17.2571 257.881 17.1101 257.548 17.0121C257.216 16.9098 256.854 16.8587 256.462 16.8587C255.759 16.8587 255.132 17.0355 254.582 17.3892C254.033 17.7429 253.6 18.2628 253.285 18.9489C252.974 19.6307 252.818 20.4616 252.818 21.4418C252.818 22.4304 252.974 23.2678 253.285 23.9538C253.596 24.6399 254.029 25.1619 254.582 25.5199C255.136 25.8736 255.78 26.0504 256.513 26.0504C257.178 26.0504 257.753 25.9226 258.239 25.6669C258.729 25.4112 259.106 25.049 259.37 24.5803C259.634 24.1072 259.766 23.5533 259.766 22.9183L260.303 23.0014H256.749V21.1477H262.061V22.7202C262.061 23.8409 261.823 24.8104 261.345 25.6286C260.868 26.4467 260.212 27.0774 259.377 27.5206C258.541 27.9595 257.582 28.179 256.5 28.179C255.294 28.179 254.235 27.9084 253.323 27.3672C252.416 26.8217 251.706 26.0483 251.195 25.0469C250.688 24.0412 250.434 22.848 250.434 21.4673C250.434 20.4105 250.583 19.4666 250.882 18.6357C251.184 17.8047 251.606 17.0994 252.147 16.5199C252.688 15.9361 253.323 15.4929 254.052 15.1903C254.781 14.8835 255.573 14.7301 256.43 14.7301C257.154 14.7301 257.83 14.8366 258.456 15.0497C259.082 15.2585 259.639 15.5568 260.124 15.9446C260.614 16.3324 261.017 16.7926 261.332 17.3253C261.648 17.858 261.855 18.446 261.953 19.0895H259.536ZM268.535 28.1918C267.576 28.1918 266.745 27.9808 266.042 27.5589C265.339 27.1371 264.793 26.5469 264.405 25.7884C264.022 25.0298 263.83 24.1435 263.83 23.1293C263.83 22.1151 264.022 21.2266 264.405 20.4638C264.793 19.701 265.339 19.1087 266.042 18.6868C266.745 18.2649 267.576 18.054 268.535 18.054C269.494 18.054 270.325 18.2649 271.028 18.6868C271.731 19.1087 272.274 19.701 272.658 20.4638C273.045 21.2266 273.239 22.1151 273.239 23.1293C273.239 24.1435 273.045 25.0298 272.658 25.7884C272.274 26.5469 271.731 27.1371 271.028 27.5589C270.325 27.9808 269.494 28.1918 268.535 28.1918ZM268.548 26.3381C269.067 26.3381 269.502 26.1953 269.851 25.9098C270.201 25.62 270.461 25.2322 270.631 24.7464C270.806 24.2607 270.893 23.7195 270.893 23.1229C270.893 22.522 270.806 21.9787 270.631 21.4929C270.461 21.0028 270.201 20.6129 269.851 20.3232C269.502 20.0334 269.067 19.8885 268.548 19.8885C268.015 19.8885 267.572 20.0334 267.218 20.3232C266.869 20.6129 266.606 21.0028 266.432 21.4929C266.261 21.9787 266.176 22.522 266.176 23.1229C266.176 23.7195 266.261 24.2607 266.432 24.7464C266.606 25.2322 266.869 25.62 267.218 25.9098C267.572 26.1953 268.015 26.3381 268.548 26.3381ZM283.639 18.1818L280.143 28H277.586L274.089 18.1818H276.557L278.813 25.4751H278.915L281.178 18.1818H283.639ZM289.807 28V14.9091H292.179V26.0121H297.945V28H289.807ZM297.758 16.897V14.9091H308.202V16.897H304.156V28H301.804V16.897H297.758ZM314.652 28H310.216V14.9091H314.741C316.041 14.9091 317.157 15.1712 318.091 15.6953C319.028 16.2152 319.748 16.9631 320.251 17.9389C320.754 18.9148 321.005 20.0824 321.005 21.4418C321.005 22.8054 320.752 23.9773 320.245 24.9574C319.742 25.9375 319.015 26.6896 318.065 27.2138C317.119 27.7379 315.981 28 314.652 28ZM312.587 25.9482H314.537C315.449 25.9482 316.209 25.782 316.819 25.4496C317.428 25.1129 317.886 24.6122 318.193 23.9474C318.5 23.2784 318.653 22.4432 318.653 21.4418C318.653 20.4403 318.5 19.6094 318.193 18.9489C317.886 18.2841 317.432 17.7876 316.831 17.4595C316.235 17.1271 315.493 16.9609 314.607 16.9609H312.587V25.9482ZM324.237 28H321.705L326.314 14.9091H329.242L333.857 28H331.325L327.829 17.5938H327.727L324.237 28ZM324.32 22.8672H331.223V24.772H324.32V22.8672Z" fill="#E8E8ED"/>
<path id="00.000.000/0000-00" d="M204.178 43.8182V54H202.945V45.1108H202.885L200.4 46.7614V45.5085L202.945 43.8182H204.178ZM207.106 54V53.1051L210.467 49.4261C210.862 48.9953 211.186 48.6207 211.442 48.3026C211.697 47.9811 211.886 47.6795 212.008 47.3977C212.134 47.1127 212.197 46.8144 212.197 46.5028C212.197 46.1449 212.111 45.835 211.939 45.5732C211.77 45.3113 211.538 45.1091 211.243 44.9666C210.948 44.8241 210.616 44.7528 210.248 44.7528C209.857 44.7528 209.516 44.834 209.224 44.9964C208.936 45.1555 208.712 45.3793 208.553 45.6676C208.397 45.956 208.319 46.294 208.319 46.6818H207.146C207.146 46.0852 207.284 45.5616 207.559 45.1108C207.834 44.66 208.208 44.3087 208.682 44.0568C209.16 43.8049 209.695 43.679 210.288 43.679C210.885 43.679 211.413 43.8049 211.874 44.0568C212.335 44.3087 212.696 44.6484 212.958 45.076C213.22 45.5036 213.351 45.9792 213.351 46.5028C213.351 46.8774 213.283 47.2436 213.147 47.6016C213.014 47.9562 212.782 48.3523 212.451 48.7898C212.123 49.224 211.667 49.7543 211.084 50.3807L208.797 52.8267V52.9062H213.53V54H207.106ZM216.458 54.0795C216.213 54.0795 216.002 53.9917 215.827 53.8161C215.651 53.6404 215.563 53.4299 215.563 53.1847C215.563 52.9394 215.651 52.7289 215.827 52.5533C216.002 52.3776 216.213 52.2898 216.458 52.2898C216.703 52.2898 216.914 52.3776 217.089 52.5533C217.265 52.7289 217.353 52.9394 217.353 53.1847C217.353 53.3471 217.311 53.4962 217.229 53.6321C217.149 53.768 217.041 53.8774 216.905 53.9602C216.773 54.0398 216.624 54.0795 216.458 54.0795ZM222.496 54.1392C221.84 54.1392 221.255 54.0265 220.741 53.8011C220.231 53.5758 219.825 53.2625 219.523 52.8615C219.225 52.4571 219.062 51.9882 219.036 51.4545H220.289C220.315 51.7827 220.428 52.0661 220.627 52.3047C220.825 52.54 221.086 52.7223 221.407 52.8516C221.729 52.9808 222.085 53.0455 222.476 53.0455C222.914 53.0455 223.301 52.9692 223.639 52.8168C223.977 52.6643 224.243 52.4522 224.435 52.1804C224.627 51.9086 224.723 51.5938 224.723 51.2358C224.723 50.8613 224.63 50.5315 224.445 50.2464C224.259 49.9581 223.987 49.7327 223.629 49.5703C223.272 49.4079 222.834 49.3267 222.317 49.3267H221.502V48.233H222.317C222.721 48.233 223.076 48.16 223.381 48.0142C223.689 47.8684 223.929 47.6629 224.102 47.3977C224.277 47.1326 224.365 46.821 224.365 46.4631C224.365 46.1184 224.289 45.8184 224.137 45.5632C223.984 45.308 223.769 45.1091 223.49 44.9666C223.215 44.8241 222.89 44.7528 222.516 44.7528C222.164 44.7528 221.833 44.8175 221.522 44.9467C221.213 45.0727 220.961 45.2566 220.766 45.4986C220.57 45.7372 220.464 46.0256 220.448 46.3636H219.254C219.274 45.83 219.435 45.3627 219.737 44.9616C220.038 44.5573 220.433 44.2424 220.92 44.017C221.41 43.7917 221.949 43.679 222.536 43.679C223.165 43.679 223.706 43.8066 224.156 44.0618C224.607 44.3137 224.954 44.6468 225.196 45.0611C225.437 45.4754 225.558 45.9228 225.558 46.4034C225.558 46.9768 225.408 47.4657 225.106 47.87C224.808 48.2744 224.402 48.5545 223.888 48.7102V48.7898C224.531 48.8958 225.033 49.1693 225.394 49.6101C225.756 50.0476 225.936 50.5895 225.936 51.2358C225.936 51.7893 225.785 52.2865 225.484 52.7273C225.186 53.1648 224.778 53.5095 224.261 53.7614C223.744 54.0133 223.156 54.1392 222.496 54.1392ZM227.731 51.9119V50.8977L232.205 43.8182H232.941V45.3892H232.444L229.063 50.7386V50.8182H235.089V51.9119H227.731ZM232.524 54V51.6037V51.1314V43.8182H233.697V54H232.524ZM240.134 54.1392C239.551 54.1392 239.025 54.0232 238.558 53.7912C238.091 53.5592 237.716 53.241 237.434 52.8366C237.153 52.4323 236.998 51.9716 236.972 51.4545H238.165C238.212 51.9152 238.42 52.2964 238.792 52.598C239.166 52.8963 239.614 53.0455 240.134 53.0455C240.552 53.0455 240.923 52.9477 241.248 52.7521C241.576 52.5566 241.833 52.2881 242.018 51.9467C242.207 51.602 242.302 51.2126 242.302 50.7784C242.302 50.3343 242.204 49.9382 242.008 49.5902C241.816 49.2389 241.551 48.9621 241.213 48.7599C240.875 48.5578 240.489 48.455 240.054 48.4517C239.743 48.4484 239.423 48.4964 239.095 48.5959C238.767 48.692 238.497 48.8163 238.284 48.9688L237.131 48.8295L237.748 43.8182H243.037V44.9119H238.782L238.424 47.9148H238.483C238.692 47.7491 238.954 47.6115 239.269 47.5021C239.584 47.3928 239.912 47.3381 240.253 47.3381C240.876 47.3381 241.431 47.4872 241.919 47.7855C242.409 48.0805 242.794 48.4848 243.072 48.9986C243.354 49.5123 243.495 50.099 243.495 50.7585C243.495 51.4081 243.349 51.9882 243.057 52.4986C242.769 53.0057 242.371 53.4067 241.864 53.7017C241.357 53.9934 240.78 54.1392 240.134 54.1392ZM245.962 54.0795C245.717 54.0795 245.506 53.9917 245.33 53.8161C245.155 53.6404 245.067 53.4299 245.067 53.1847C245.067 52.9394 245.155 52.7289 245.33 52.5533C245.506 52.3776 245.717 52.2898 245.962 52.2898C246.207 52.2898 246.418 52.3776 246.593 52.5533C246.769 52.7289 246.857 52.9394 246.857 53.1847C246.857 53.3471 246.815 53.4962 246.732 53.6321C246.653 53.768 246.545 53.8774 246.409 53.9602C246.277 54.0398 246.128 54.0795 245.962 54.0795ZM251.968 54.1392C251.55 54.1326 251.132 54.053 250.715 53.9006C250.297 53.7481 249.916 53.4912 249.571 53.13C249.227 52.7654 248.95 52.2732 248.741 51.6534C248.532 51.0303 248.428 50.2481 248.428 49.3068C248.428 48.4053 248.512 47.6065 248.681 46.9105C248.85 46.2112 249.096 45.6229 249.417 45.1456C249.739 44.665 250.126 44.3004 250.58 44.0518C251.038 43.8033 251.553 43.679 252.127 43.679C252.697 43.679 253.204 43.7933 253.648 44.022C254.095 44.2474 254.46 44.5623 254.742 44.9666C255.023 45.371 255.206 45.8366 255.289 46.3636H254.075C253.963 45.9062 253.744 45.5268 253.419 45.2251C253.094 44.9235 252.664 44.7727 252.127 44.7727C251.338 44.7727 250.716 45.1158 250.262 45.8018C249.812 46.4879 249.584 47.4508 249.581 48.6903H249.661C249.846 48.4086 250.067 48.1683 250.322 47.9695C250.58 47.7673 250.865 47.6115 251.177 47.5021C251.489 47.3928 251.818 47.3381 252.166 47.3381C252.75 47.3381 253.283 47.4839 253.767 47.7756C254.251 48.0639 254.639 48.4633 254.931 48.9737C255.222 49.4808 255.368 50.0625 255.368 50.7188C255.368 51.3485 255.227 51.9252 254.946 52.4489C254.664 52.9692 254.268 53.3835 253.757 53.6918C253.25 53.9967 252.654 54.1458 251.968 54.1392ZM251.968 53.0455C252.385 53.0455 252.76 52.9411 253.091 52.7322C253.426 52.5234 253.689 52.2434 253.882 51.892C254.077 51.5407 254.175 51.1496 254.175 50.7188C254.175 50.2978 254.08 49.915 253.892 49.5703C253.706 49.2223 253.449 48.9455 253.121 48.7401C252.796 48.5346 252.425 48.4318 252.007 48.4318C251.692 48.4318 251.399 48.4948 251.127 48.6207C250.856 48.7434 250.617 48.9124 250.411 49.1278C250.209 49.3433 250.05 49.5902 249.934 49.8686C249.818 50.1437 249.76 50.4337 249.76 50.7386C249.76 51.143 249.855 51.5208 250.044 51.8722C250.236 52.2235 250.498 52.5069 250.829 52.7223C251.164 52.9377 251.543 53.0455 251.968 53.0455ZM257.641 54L262.195 44.9915V44.9119H256.945V43.8182H263.468V44.9716L258.934 54H257.641ZM268.378 54.1392C267.695 54.1392 267.092 54.0182 266.568 53.7763C266.047 53.531 265.641 53.1946 265.35 52.767C265.058 52.3362 264.914 51.8456 264.917 51.2955C264.914 50.8646 264.998 50.4669 265.171 50.1023C265.343 49.7344 265.578 49.4278 265.877 49.1825C266.178 48.9339 266.515 48.7765 266.886 48.7102V48.6506C266.399 48.5246 266.011 48.2512 265.723 47.8303C265.434 47.406 265.292 46.9238 265.295 46.3835C265.292 45.8665 265.423 45.4041 265.688 44.9964C265.953 44.5888 266.318 44.2673 266.782 44.032C267.249 43.7966 267.781 43.679 268.378 43.679C268.967 43.679 269.494 43.7966 269.958 44.032C270.422 44.2673 270.787 44.5888 271.052 44.9964C271.321 45.4041 271.457 45.8665 271.46 46.3835C271.457 46.9238 271.309 47.406 271.017 47.8303C270.729 48.2512 270.346 48.5246 269.869 48.6506V48.7102C270.237 48.7765 270.568 48.9339 270.863 49.1825C271.158 49.4278 271.394 49.7344 271.569 50.1023C271.745 50.4669 271.834 50.8646 271.838 51.2955C271.834 51.8456 271.685 52.3362 271.39 52.767C271.099 53.1946 270.693 53.531 270.172 53.7763C269.655 54.0182 269.057 54.1392 268.378 54.1392ZM268.378 53.0455C268.838 53.0455 269.236 52.9709 269.571 52.8217C269.905 52.6726 270.164 52.4621 270.346 52.1903C270.529 51.9186 270.621 51.6004 270.625 51.2358C270.621 50.8513 270.522 50.5116 270.326 50.2166C270.131 49.9216 269.864 49.6896 269.526 49.5206C269.191 49.3516 268.808 49.267 268.378 49.267C267.943 49.267 267.556 49.3516 267.214 49.5206C266.876 49.6896 266.609 49.9216 266.414 50.2166C266.221 50.5116 266.127 50.8513 266.13 51.2358C266.127 51.6004 266.215 51.9186 266.394 52.1903C266.576 52.4621 266.836 52.6726 267.174 52.8217C267.512 52.9709 267.913 53.0455 268.378 53.0455ZM268.378 48.2131C268.742 48.2131 269.065 48.1402 269.347 47.9943C269.632 47.8485 269.856 47.6446 270.018 47.3828C270.181 47.121 270.263 46.8144 270.267 46.4631C270.263 46.1184 270.182 45.8184 270.023 45.5632C269.864 45.3047 269.644 45.1058 269.362 44.9666C269.08 44.8241 268.752 44.7528 268.378 44.7528C267.996 44.7528 267.663 44.8241 267.378 44.9666C267.093 45.1058 266.873 45.3047 266.717 45.5632C266.561 45.8184 266.485 46.1184 266.488 46.4631C266.485 46.8144 266.563 47.121 266.722 47.3828C266.884 47.6446 267.108 47.8485 267.393 47.9943C267.678 48.1402 268.006 48.2131 268.378 48.2131ZM277.362 43.3409L274.081 55.5312H273.007L276.289 43.3409H277.362ZM282.054 54.1392C281.305 54.1392 280.667 53.9354 280.14 53.5277C279.613 53.1167 279.211 52.5218 278.932 51.7429C278.654 50.9607 278.515 50.0161 278.515 48.9091C278.515 47.8087 278.654 46.8691 278.932 46.0902C279.214 45.308 279.618 44.7114 280.145 44.3004C280.676 43.8861 281.312 43.679 282.054 43.679C282.797 43.679 283.431 43.8861 283.958 44.3004C284.489 44.7114 284.893 45.308 285.172 46.0902C285.453 46.8691 285.594 47.8087 285.594 48.9091C285.594 50.0161 285.455 50.9607 285.177 51.7429C284.898 52.5218 284.495 53.1167 283.968 53.5277C283.441 53.9354 282.803 54.1392 282.054 54.1392ZM282.054 53.0455C282.797 53.0455 283.373 52.6875 283.784 51.9716C284.195 51.2557 284.401 50.2348 284.401 48.9091C284.401 48.0275 284.306 47.2768 284.118 46.657C283.932 46.0372 283.663 45.5649 283.312 45.2401C282.964 44.9152 282.545 44.7528 282.054 44.7528C281.319 44.7528 280.744 45.1158 280.329 45.8416C279.915 46.5642 279.708 47.5866 279.708 48.9091C279.708 49.7907 279.801 50.5398 279.986 51.1562C280.172 51.7727 280.439 52.2417 280.787 52.5632C281.138 52.8847 281.561 53.0455 282.054 53.0455ZM290.804 54.1392C290.055 54.1392 289.417 53.9354 288.89 53.5277C288.363 53.1167 287.961 52.5218 287.682 51.7429C287.404 50.9607 287.265 50.0161 287.265 48.9091C287.265 47.8087 287.404 46.8691 287.682 46.0902C287.964 45.308 288.368 44.7114 288.895 44.3004C289.426 43.8861 290.062 43.679 290.804 43.679C291.547 43.679 292.181 43.8861 292.708 44.3004C293.239 44.7114 293.643 45.308 293.922 46.0902C294.203 46.8691 294.344 47.8087 294.344 48.9091C294.344 50.0161 294.205 50.9607 293.927 51.7429C293.648 52.5218 293.245 53.1167 292.718 53.5277C292.191 53.9354 291.553 54.1392 290.804 54.1392ZM290.804 53.0455C291.547 53.0455 292.123 52.6875 292.534 51.9716C292.945 51.2557 293.151 50.2348 293.151 48.9091C293.151 48.0275 293.056 47.2768 292.868 46.657C292.682 46.0372 292.413 45.5649 292.062 45.2401C291.714 44.9152 291.295 44.7528 290.804 44.7528C290.069 44.7528 289.494 45.1158 289.079 45.8416C288.665 46.5642 288.458 47.5866 288.458 48.9091C288.458 49.7907 288.551 50.5398 288.736 51.1562C288.922 51.7727 289.189 52.2417 289.537 52.5632C289.888 52.8847 290.311 53.0455 290.804 53.0455ZM299.554 54.1392C298.805 54.1392 298.167 53.9354 297.64 53.5277C297.113 53.1167 296.711 52.5218 296.432 51.7429C296.154 50.9607 296.015 50.0161 296.015 48.9091C296.015 47.8087 296.154 46.8691 296.432 46.0902C296.714 45.308 297.118 44.7114 297.645 44.3004C298.176 43.8861 298.812 43.679 299.554 43.679C300.297 43.679 300.931 43.8861 301.458 44.3004C301.989 44.7114 302.393 45.308 302.672 46.0902C302.953 46.8691 303.094 47.8087 303.094 48.9091C303.094 50.0161 302.955 50.9607 302.677 51.7429C302.398 52.5218 301.995 53.1167 301.468 53.5277C300.941 53.9354 300.303 54.1392 299.554 54.1392ZM299.554 53.0455C300.297 53.0455 300.873 52.6875 301.284 51.9716C301.695 51.2557 301.901 50.2348 301.901 48.9091C301.901 48.0275 301.806 47.2768 301.618 46.657C301.432 46.0372 301.163 45.5649 300.812 45.2401C300.464 44.9152 300.045 44.7528 299.554 44.7528C298.819 44.7528 298.244 45.1158 297.829 45.8416C297.415 46.5642 297.208 47.5866 297.208 48.9091C297.208 49.7907 297.301 50.5398 297.486 51.1562C297.672 51.7727 297.939 52.2417 298.287 52.5632C298.638 52.8847 299.061 53.0455 299.554 53.0455ZM308.563 43.8182V54H307.33V45.1108H307.27L304.784 46.7614V45.5085L307.33 43.8182H308.563ZM315.886 48.3622V49.456H311.431V48.3622H315.886ZM317.452 54V53.1051L320.813 49.4261C321.207 48.9953 321.532 48.6207 321.787 48.3026C322.043 47.9811 322.231 47.6795 322.354 47.3977C322.48 47.1127 322.543 46.8144 322.543 46.5028C322.543 46.1449 322.457 45.835 322.284 45.5732C322.115 45.3113 321.883 45.1091 321.588 44.9666C321.293 44.8241 320.962 44.7528 320.594 44.7528C320.203 44.7528 319.862 44.834 319.57 44.9964C319.282 45.1555 319.058 45.3793 318.899 45.6676C318.743 45.956 318.665 46.294 318.665 46.6818H317.492C317.492 46.0852 317.629 45.5616 317.904 45.1108C318.18 44.66 318.554 44.3087 319.028 44.0568C319.505 43.8049 320.041 43.679 320.634 43.679C321.23 43.679 321.759 43.8049 322.22 44.0568C322.681 44.3087 323.042 44.6484 323.304 45.076C323.565 45.5036 323.696 45.9792 323.696 46.5028C323.696 46.8774 323.628 47.2436 323.493 47.6016C323.36 47.9562 323.128 48.3523 322.797 48.7898C322.468 49.224 322.013 49.7543 321.429 50.3807L319.142 52.8267V52.9062H323.875V54H317.452ZM329.369 54.1392C328.713 54.1392 328.128 54.0265 327.614 53.8011C327.104 53.5758 326.698 53.2625 326.396 52.8615C326.098 52.4571 325.935 51.9882 325.909 51.4545H327.162C327.188 51.7827 327.301 52.0661 327.5 52.3047C327.699 52.54 327.959 52.7223 328.28 52.8516C328.602 52.9808 328.958 53.0455 329.349 53.0455C329.787 53.0455 330.174 52.9692 330.512 52.8168C330.851 52.6643 331.116 52.4522 331.308 52.1804C331.5 51.9086 331.596 51.5938 331.596 51.2358C331.596 50.8613 331.503 50.5315 331.318 50.2464C331.132 49.9581 330.86 49.7327 330.503 49.5703C330.145 49.4079 329.707 49.3267 329.19 49.3267H328.375V48.233H329.19C329.594 48.233 329.949 48.16 330.254 48.0142C330.562 47.8684 330.802 47.6629 330.975 47.3977C331.15 47.1326 331.238 46.821 331.238 46.4631C331.238 46.1184 331.162 45.8184 331.01 45.5632C330.857 45.308 330.642 45.1091 330.363 44.9666C330.088 44.8241 329.763 44.7528 329.389 44.7528C329.038 44.7528 328.706 44.8175 328.395 44.9467C328.086 45.0727 327.834 45.2566 327.639 45.4986C327.443 45.7372 327.337 46.0256 327.321 46.3636H326.128C326.147 45.83 326.308 45.3627 326.61 44.9616C326.911 44.5573 327.306 44.2424 327.793 44.017C328.284 43.7917 328.822 43.679 329.409 43.679C330.038 43.679 330.579 43.8066 331.029 44.0618C331.48 44.3137 331.827 44.6468 332.069 45.0611C332.311 45.4754 332.431 45.9228 332.431 46.4034C332.431 46.9768 332.281 47.4657 331.979 47.87C331.681 48.2744 331.275 48.5545 330.761 48.7102V48.7898C331.404 48.8958 331.906 49.1693 332.267 49.6101C332.629 50.0476 332.809 50.5895 332.809 51.2358C332.809 51.7893 332.659 52.2865 332.357 52.7273C332.059 53.1648 331.651 53.5095 331.134 53.7614C330.617 54.0133 330.029 54.1392 329.369 54.1392Z" fill="#E8E8ED"/>
</g>
</g>
<g id="Frame 41034">
<g id="Frame 36">
<g id="Frame 25">
<g id="Frame 23">
<path id="12" d="M260.576 100.727V124H256.36V104.83H256.223L250.78 108.307V104.443L256.564 100.727H260.576ZM266.485 124V120.955L274.564 113.034C275.337 112.254 275.981 111.561 276.496 110.955C277.011 110.348 277.398 109.761 277.655 109.193C277.913 108.625 278.042 108.019 278.042 107.375C278.042 106.64 277.875 106.011 277.542 105.489C277.208 104.958 276.75 104.549 276.167 104.261C275.583 103.973 274.92 103.83 274.178 103.83C273.413 103.83 272.742 103.989 272.167 104.307C271.591 104.617 271.144 105.061 270.826 105.636C270.515 106.212 270.36 106.898 270.36 107.693H266.348C266.348 106.216 266.685 104.932 267.36 103.841C268.034 102.75 268.962 101.905 270.144 101.307C271.333 100.708 272.697 100.409 274.235 100.409C275.795 100.409 277.167 100.701 278.348 101.284C279.53 101.867 280.447 102.667 281.098 103.682C281.757 104.697 282.087 105.856 282.087 107.159C282.087 108.03 281.92 108.886 281.587 109.727C281.254 110.568 280.667 111.5 279.826 112.523C278.992 113.545 277.822 114.784 276.314 116.239L272.303 120.318V120.477H282.439V124H266.485Z" fill="black"/>
<path id="Projetos" d="M239.785 148V137.818H243.414C244.207 137.818 244.863 137.962 245.383 138.251C245.903 138.539 246.293 138.933 246.551 139.434C246.81 139.931 246.939 140.491 246.939 141.114C246.939 141.741 246.808 142.304 246.546 142.805C246.288 143.302 245.897 143.696 245.373 143.988C244.853 144.276 244.198 144.42 243.409 144.42H240.914V143.118H243.27C243.771 143.118 244.177 143.032 244.488 142.859C244.8 142.684 245.028 142.445 245.174 142.143C245.32 141.842 245.393 141.499 245.393 141.114C245.393 140.73 245.32 140.388 245.174 140.09C245.028 139.792 244.798 139.558 244.483 139.389C244.172 139.22 243.761 139.136 243.25 139.136H241.321V148H239.785ZM248.621 148V140.364H250.058V141.577H250.137C250.276 141.166 250.522 140.843 250.873 140.607C251.228 140.369 251.629 140.249 252.076 140.249C252.169 140.249 252.278 140.253 252.404 140.259C252.534 140.266 252.635 140.274 252.708 140.284V141.706C252.648 141.689 252.542 141.671 252.389 141.651C252.237 141.628 252.084 141.616 251.932 141.616C251.581 141.616 251.267 141.691 250.992 141.84C250.721 141.986 250.505 142.19 250.346 142.452C250.187 142.71 250.107 143.005 250.107 143.337V148H248.621ZM256.937 148.154C256.221 148.154 255.596 147.99 255.063 147.662C254.529 147.334 254.115 146.875 253.82 146.285C253.525 145.695 253.377 145.005 253.377 144.217C253.377 143.424 253.525 142.732 253.82 142.138C254.115 141.545 254.529 141.085 255.063 140.756C255.596 140.428 256.221 140.264 256.937 140.264C257.653 140.264 258.278 140.428 258.811 140.756C259.345 141.085 259.759 141.545 260.054 142.138C260.349 142.732 260.497 143.424 260.497 144.217C260.497 145.005 260.349 145.695 260.054 146.285C259.759 146.875 259.345 147.334 258.811 147.662C258.278 147.99 257.653 148.154 256.937 148.154ZM256.942 146.906C257.406 146.906 257.791 146.784 258.095 146.538C258.4 146.293 258.626 145.967 258.772 145.559C258.921 145.151 258.995 144.702 258.995 144.212C258.995 143.724 258.921 143.277 258.772 142.869C258.626 142.458 258.4 142.129 258.095 141.88C257.791 141.631 257.406 141.507 256.942 141.507C256.475 141.507 256.087 141.631 255.779 141.88C255.474 142.129 255.247 142.458 255.098 142.869C254.952 143.277 254.879 143.724 254.879 144.212C254.879 144.702 254.952 145.151 255.098 145.559C255.247 145.967 255.474 146.293 255.779 146.538C256.087 146.784 256.475 146.906 256.942 146.906ZM262.156 140.364H263.643V148.497C263.643 149.008 263.55 149.438 263.364 149.79C263.182 150.141 262.91 150.408 262.549 150.59C262.191 150.772 261.748 150.864 261.221 150.864C261.168 150.864 261.119 150.864 261.072 150.864C261.023 150.864 260.971 150.862 260.918 150.859V149.581C260.965 149.581 261.006 149.581 261.042 149.581C261.076 149.581 261.114 149.581 261.157 149.581C261.508 149.581 261.762 149.487 261.917 149.298C262.076 149.112 262.156 148.842 262.156 148.487V140.364ZM262.892 139.185C262.633 139.185 262.411 139.099 262.226 138.927C262.043 138.751 261.952 138.542 261.952 138.3C261.952 138.055 262.043 137.846 262.226 137.674C262.411 137.498 262.633 137.411 262.892 137.411C263.15 137.411 263.371 137.498 263.553 137.674C263.739 137.846 263.831 138.055 263.831 138.3C263.831 138.542 263.739 138.751 263.553 138.927C263.371 139.099 263.15 139.185 262.892 139.185ZM268.934 148.154C268.181 148.154 267.533 147.993 266.99 147.672C266.449 147.347 266.032 146.891 265.737 146.305C265.445 145.715 265.299 145.024 265.299 144.232C265.299 143.449 265.445 142.76 265.737 142.163C266.032 141.567 266.443 141.101 266.97 140.766C267.5 140.432 268.12 140.264 268.829 140.264C269.26 140.264 269.678 140.335 270.082 140.478C270.486 140.621 270.849 140.844 271.171 141.149C271.492 141.454 271.746 141.85 271.931 142.337C272.117 142.821 272.21 143.41 272.21 144.102V144.629H266.14V143.516H270.753C270.753 143.125 270.674 142.778 270.515 142.477C270.355 142.172 270.132 141.931 269.843 141.756C269.558 141.58 269.224 141.492 268.839 141.492C268.421 141.492 268.057 141.595 267.745 141.8C267.437 142.003 267.198 142.268 267.029 142.596C266.864 142.921 266.781 143.274 266.781 143.655V144.525C266.781 145.035 266.87 145.469 267.049 145.827C267.232 146.185 267.485 146.459 267.81 146.648C268.135 146.833 268.514 146.926 268.948 146.926C269.23 146.926 269.487 146.886 269.719 146.807C269.951 146.724 270.152 146.601 270.321 146.439C270.49 146.277 270.619 146.076 270.708 145.837L272.115 146.091C272.003 146.505 271.801 146.868 271.509 147.18C271.22 147.488 270.858 147.728 270.42 147.901C269.986 148.07 269.49 148.154 268.934 148.154ZM277.424 140.364V141.557H273.253V140.364H277.424ZM274.371 138.534H275.858V145.758C275.858 146.046 275.901 146.263 275.987 146.409C276.073 146.552 276.184 146.649 276.32 146.702C276.459 146.752 276.61 146.777 276.773 146.777C276.892 146.777 276.996 146.769 277.086 146.752C277.175 146.736 277.245 146.722 277.295 146.712L277.563 147.94C277.477 147.973 277.354 148.007 277.195 148.04C277.036 148.076 276.837 148.096 276.598 148.099C276.207 148.106 275.843 148.036 275.505 147.891C275.167 147.745 274.893 147.519 274.684 147.214C274.476 146.91 274.371 146.527 274.371 146.066V138.534ZM282.203 148.154C281.487 148.154 280.862 147.99 280.328 147.662C279.795 147.334 279.381 146.875 279.086 146.285C278.791 145.695 278.643 145.005 278.643 144.217C278.643 143.424 278.791 142.732 279.086 142.138C279.381 141.545 279.795 141.085 280.328 140.756C280.862 140.428 281.487 140.264 282.203 140.264C282.919 140.264 283.543 140.428 284.077 140.756C284.611 141.085 285.025 141.545 285.32 142.138C285.615 142.732 285.762 143.424 285.762 144.217C285.762 145.005 285.615 145.695 285.32 146.285C285.025 146.875 284.611 147.334 284.077 147.662C283.543 147.99 282.919 148.154 282.203 148.154ZM282.208 146.906C282.672 146.906 283.056 146.784 283.361 146.538C283.666 146.293 283.891 145.967 284.037 145.559C284.186 145.151 284.261 144.702 284.261 144.212C284.261 143.724 284.186 143.277 284.037 142.869C283.891 142.458 283.666 142.129 283.361 141.88C283.056 141.631 282.672 141.507 282.208 141.507C281.74 141.507 281.353 141.631 281.044 141.88C280.739 142.129 280.512 142.458 280.363 142.869C280.217 143.277 280.144 143.724 280.144 144.212C280.144 144.702 280.217 145.151 280.363 145.559C280.512 145.967 280.739 146.293 281.044 146.538C281.353 146.784 281.74 146.906 282.208 146.906ZM293.144 142.228L291.797 142.467C291.74 142.294 291.651 142.13 291.528 141.974C291.409 141.819 291.246 141.691 291.041 141.592C290.835 141.492 290.579 141.442 290.27 141.442C289.849 141.442 289.498 141.537 289.216 141.726C288.935 141.911 288.794 142.152 288.794 142.447C288.794 142.702 288.888 142.907 289.077 143.063C289.266 143.219 289.571 143.347 289.992 143.446L291.205 143.724C291.908 143.887 292.431 144.137 292.776 144.475C293.121 144.813 293.293 145.252 293.293 145.793C293.293 146.25 293.161 146.658 292.895 147.016C292.634 147.37 292.267 147.649 291.797 147.851C291.329 148.053 290.787 148.154 290.171 148.154C289.316 148.154 288.618 147.972 288.078 147.607C287.538 147.239 287.206 146.717 287.084 146.041L288.52 145.822C288.61 146.197 288.794 146.48 289.072 146.673C289.351 146.862 289.714 146.956 290.161 146.956C290.648 146.956 291.038 146.855 291.329 146.653C291.621 146.447 291.767 146.197 291.767 145.902C291.767 145.663 291.677 145.463 291.498 145.3C291.323 145.138 291.053 145.015 290.688 144.933L289.395 144.649C288.683 144.487 288.156 144.228 287.814 143.874C287.476 143.519 287.307 143.07 287.307 142.526C287.307 142.076 287.433 141.681 287.685 141.343C287.937 141.005 288.285 140.741 288.729 140.553C289.173 140.36 289.682 140.264 290.255 140.264C291.081 140.264 291.73 140.443 292.204 140.801C292.678 141.156 292.991 141.631 293.144 142.228Z" fill="black"/>
</g>
</g>
<path id="Atualizado em: 10/08/2024" d="M177.83 184H176.199L179.863 173.818H181.638L185.302 184H183.672L180.793 175.668H180.713L177.83 184ZM178.103 180.013H183.393V181.305H178.103V180.013ZM189.739 176.364V177.557H185.568V176.364H189.739ZM186.687 174.534H188.173V181.758C188.173 182.046 188.216 182.263 188.303 182.409C188.389 182.552 188.5 182.649 188.636 182.702C188.775 182.752 188.926 182.777 189.088 182.777C189.207 182.777 189.312 182.769 189.401 182.752C189.491 182.736 189.56 182.722 189.61 182.712L189.879 183.94C189.792 183.973 189.67 184.007 189.511 184.04C189.352 184.076 189.153 184.096 188.914 184.099C188.523 184.106 188.158 184.036 187.82 183.891C187.482 183.745 187.209 183.519 187 183.214C186.791 182.91 186.687 182.527 186.687 182.066V174.534ZM196.221 180.833V176.364H197.713V184H196.251V182.678H196.171C195.996 183.085 195.714 183.425 195.326 183.697C194.942 183.965 194.463 184.099 193.889 184.099C193.399 184.099 192.965 183.992 192.587 183.776C192.212 183.558 191.917 183.234 191.702 182.807C191.49 182.379 191.384 181.851 191.384 181.221V176.364H192.87V181.042C192.87 181.562 193.014 181.977 193.303 182.285C193.591 182.593 193.966 182.747 194.426 182.747C194.705 182.747 194.981 182.678 195.257 182.538C195.535 182.399 195.765 182.189 195.948 181.907C196.133 181.625 196.224 181.267 196.221 180.833ZM201.932 184.169C201.448 184.169 201.011 184.08 200.62 183.901C200.229 183.718 199.919 183.455 199.69 183.11C199.465 182.765 199.352 182.343 199.352 181.842C199.352 181.411 199.435 181.057 199.601 180.778C199.766 180.5 199.99 180.28 200.272 180.117C200.553 179.955 200.868 179.832 201.216 179.749C201.564 179.666 201.919 179.603 202.28 179.56C202.738 179.507 203.109 179.464 203.394 179.431C203.679 179.395 203.886 179.337 204.015 179.257C204.145 179.178 204.209 179.048 204.209 178.869V178.835C204.209 178.4 204.087 178.064 203.841 177.825C203.599 177.587 203.238 177.467 202.757 177.467C202.257 177.467 201.863 177.578 201.574 177.8C201.289 178.019 201.092 178.263 200.983 178.531L199.586 178.213C199.751 177.749 199.993 177.375 200.311 177.089C200.633 176.801 201.003 176.592 201.42 176.463C201.838 176.33 202.277 176.264 202.738 176.264C203.043 176.264 203.366 176.301 203.707 176.374C204.052 176.443 204.373 176.572 204.672 176.761C204.973 176.95 205.22 177.22 205.412 177.572C205.605 177.92 205.701 178.372 205.701 178.929V184H204.249V182.956H204.189C204.093 183.148 203.949 183.337 203.757 183.523C203.565 183.708 203.318 183.862 203.016 183.985C202.714 184.108 202.353 184.169 201.932 184.169ZM202.255 182.976C202.666 182.976 203.018 182.895 203.309 182.732C203.604 182.57 203.828 182.358 203.98 182.096C204.136 181.831 204.214 181.547 204.214 181.246V180.261C204.161 180.314 204.058 180.364 203.906 180.411C203.757 180.454 203.586 180.492 203.394 180.525C203.202 180.555 203.014 180.583 202.832 180.609C202.65 180.633 202.497 180.652 202.375 180.669C202.086 180.705 201.823 180.767 201.584 180.853C201.349 180.939 201.16 181.063 201.017 181.226C200.878 181.385 200.809 181.597 200.809 181.862C200.809 182.23 200.945 182.509 201.216 182.697C201.488 182.883 201.834 182.976 202.255 182.976ZM209.167 173.818V184H207.681V173.818H209.167ZM211.167 184V176.364H212.653V184H211.167ZM211.918 175.185C211.659 175.185 211.437 175.099 211.251 174.927C211.069 174.751 210.978 174.542 210.978 174.3C210.978 174.055 211.069 173.846 211.251 173.674C211.437 173.498 211.659 173.411 211.918 173.411C212.176 173.411 212.397 173.498 212.579 173.674C212.764 173.846 212.857 174.055 212.857 174.3C212.857 174.542 212.764 174.751 212.579 174.927C212.397 175.099 212.176 175.185 211.918 175.185ZM214.494 184V182.981L218.631 177.726V177.656H214.628V176.364H220.485V177.447L216.508 182.638V182.707H220.624V184H214.494ZM224.6 184.169C224.116 184.169 223.679 184.08 223.288 183.901C222.897 183.718 222.587 183.455 222.358 183.11C222.133 182.765 222.02 182.343 222.02 181.842C222.02 181.411 222.103 181.057 222.268 180.778C222.434 180.5 222.658 180.28 222.94 180.117C223.221 179.955 223.536 179.832 223.884 179.749C224.232 179.666 224.587 179.603 224.948 179.56C225.406 179.507 225.777 179.464 226.062 179.431C226.347 179.395 226.554 179.337 226.683 179.257C226.813 179.178 226.877 179.048 226.877 178.869V178.835C226.877 178.4 226.755 178.064 226.509 177.825C226.267 177.587 225.906 177.467 225.425 177.467C224.925 177.467 224.531 177.578 224.242 177.8C223.957 178.019 223.76 178.263 223.651 178.531L222.254 178.213C222.419 177.749 222.661 177.375 222.979 177.089C223.301 176.801 223.67 176.592 224.088 176.463C224.506 176.33 224.945 176.264 225.406 176.264C225.71 176.264 226.034 176.301 226.375 176.374C226.72 176.443 227.041 176.572 227.34 176.761C227.641 176.95 227.888 177.22 228.08 177.572C228.273 177.92 228.369 178.372 228.369 178.929V184H226.917V182.956H226.857C226.761 183.148 226.617 183.337 226.425 183.523C226.233 183.708 225.986 183.862 225.684 183.985C225.382 184.108 225.021 184.169 224.6 184.169ZM224.923 182.976C225.334 182.976 225.686 182.895 225.977 182.732C226.272 182.57 226.496 182.358 226.648 182.096C226.804 181.831 226.882 181.547 226.882 181.246V180.261C226.829 180.314 226.726 180.364 226.574 180.411C226.425 180.454 226.254 180.492 226.062 180.525C225.87 180.555 225.682 180.583 225.5 180.609C225.318 180.633 225.165 180.652 225.043 180.669C224.754 180.705 224.491 180.767 224.252 180.853C224.017 180.939 223.828 181.063 223.685 181.226C223.546 181.385 223.477 181.597 223.477 181.862C223.477 182.23 223.612 182.509 223.884 182.697C224.156 182.883 224.502 182.976 224.923 182.976ZM233.207 184.149C232.591 184.149 232.041 183.992 231.557 183.677C231.076 183.359 230.698 182.906 230.423 182.32C230.151 181.73 230.015 181.022 230.015 180.197C230.015 179.371 230.153 178.665 230.428 178.079C230.707 177.492 231.088 177.043 231.572 176.732C232.055 176.42 232.604 176.264 233.217 176.264C233.691 176.264 234.072 176.344 234.361 176.503C234.652 176.659 234.878 176.841 235.037 177.05C235.199 177.259 235.325 177.442 235.415 177.602H235.504V173.818H236.991V184H235.539V182.812H235.415C235.325 182.974 235.196 183.16 235.027 183.369C234.861 183.577 234.632 183.76 234.341 183.915C234.049 184.071 233.671 184.149 233.207 184.149ZM233.535 182.881C233.963 182.881 234.324 182.769 234.619 182.543C234.917 182.315 235.143 181.998 235.295 181.594C235.451 181.189 235.529 180.719 235.529 180.182C235.529 179.652 235.453 179.187 235.3 178.79C235.148 178.392 234.924 178.082 234.629 177.86C234.334 177.638 233.97 177.527 233.535 177.527C233.088 177.527 232.715 177.643 232.417 177.875C232.118 178.107 231.893 178.424 231.741 178.825C231.591 179.226 231.517 179.678 231.517 180.182C231.517 180.692 231.593 181.151 231.746 181.559C231.898 181.967 232.123 182.29 232.422 182.528C232.723 182.764 233.095 182.881 233.535 182.881ZM242.329 184.154C241.613 184.154 240.988 183.99 240.455 183.662C239.921 183.334 239.507 182.875 239.212 182.285C238.917 181.695 238.769 181.005 238.769 180.217C238.769 179.424 238.917 178.732 239.212 178.138C239.507 177.545 239.921 177.085 240.455 176.756C240.988 176.428 241.613 176.264 242.329 176.264C243.045 176.264 243.67 176.428 244.203 176.756C244.737 177.085 245.151 177.545 245.446 178.138C245.741 178.732 245.889 179.424 245.889 180.217C245.889 181.005 245.741 181.695 245.446 182.285C245.151 182.875 244.737 183.334 244.203 183.662C243.67 183.99 243.045 184.154 242.329 184.154ZM242.334 182.906C242.798 182.906 243.182 182.784 243.487 182.538C243.792 182.293 244.018 181.967 244.163 181.559C244.313 181.151 244.387 180.702 244.387 180.212C244.387 179.724 244.313 179.277 244.163 178.869C244.018 178.458 243.792 178.129 243.487 177.88C243.182 177.631 242.798 177.507 242.334 177.507C241.866 177.507 241.479 177.631 241.17 177.88C240.866 178.129 240.639 178.458 240.489 178.869C240.344 179.277 240.271 179.724 240.271 180.212C240.271 180.702 240.344 181.151 240.489 181.559C240.639 181.967 240.866 182.293 241.17 182.538C241.479 182.784 241.866 182.906 242.334 182.906ZM254.544 184.154C253.792 184.154 253.144 183.993 252.6 183.672C252.06 183.347 251.642 182.891 251.347 182.305C251.056 181.715 250.91 181.024 250.91 180.232C250.91 179.449 251.056 178.76 251.347 178.163C251.642 177.567 252.053 177.101 252.58 176.766C253.111 176.432 253.73 176.264 254.44 176.264C254.871 176.264 255.288 176.335 255.692 176.478C256.097 176.621 256.46 176.844 256.781 177.149C257.103 177.454 257.356 177.85 257.542 178.337C257.728 178.821 257.82 179.41 257.82 180.102V180.629H251.75V179.516H256.364C256.364 179.125 256.284 178.778 256.125 178.477C255.966 178.172 255.742 177.931 255.454 177.756C255.169 177.58 254.834 177.492 254.45 177.492C254.032 177.492 253.667 177.595 253.356 177.8C253.048 178.003 252.809 178.268 252.64 178.596C252.474 178.921 252.391 179.274 252.391 179.655V180.525C252.391 181.035 252.481 181.469 252.66 181.827C252.842 182.185 253.096 182.459 253.42 182.648C253.745 182.833 254.125 182.926 254.559 182.926C254.841 182.926 255.098 182.886 255.33 182.807C255.562 182.724 255.762 182.601 255.931 182.439C256.1 182.277 256.229 182.076 256.319 181.837L257.726 182.091C257.613 182.505 257.411 182.868 257.119 183.18C256.831 183.488 256.468 183.728 256.031 183.901C255.596 184.07 255.101 184.154 254.544 184.154ZM259.47 184V176.364H260.897V177.607H260.991C261.15 177.186 261.41 176.857 261.772 176.622C262.133 176.384 262.565 176.264 263.069 176.264C263.58 176.264 264.007 176.384 264.352 176.622C264.7 176.861 264.957 177.189 265.122 177.607H265.202C265.384 177.199 265.674 176.874 266.072 176.632C266.47 176.387 266.944 176.264 267.494 176.264C268.187 176.264 268.752 176.481 269.189 176.915C269.63 177.35 269.85 178.004 269.85 178.879V184H268.364V179.018C268.364 178.501 268.223 178.127 267.941 177.895C267.66 177.663 267.323 177.547 266.932 177.547C266.448 177.547 266.072 177.696 265.803 177.994C265.535 178.289 265.401 178.669 265.401 179.133V184H263.919V178.924C263.919 178.51 263.79 178.177 263.531 177.925C263.273 177.673 262.937 177.547 262.522 177.547C262.24 177.547 261.98 177.621 261.742 177.771C261.506 177.916 261.316 178.12 261.17 178.382C261.027 178.644 260.956 178.947 260.956 179.292V184H259.47ZM272.822 184.094C272.55 184.094 272.317 183.998 272.121 183.806C271.926 183.611 271.828 183.375 271.828 183.1C271.828 182.828 271.926 182.596 272.121 182.404C272.317 182.209 272.55 182.111 272.822 182.111C273.094 182.111 273.328 182.209 273.523 182.404C273.719 182.596 273.816 182.828 273.816 183.1C273.816 183.282 273.77 183.45 273.677 183.602C273.588 183.751 273.468 183.871 273.319 183.96C273.17 184.05 273.004 184.094 272.822 184.094ZM272.822 178.536C272.55 178.536 272.317 178.438 272.121 178.243C271.926 178.047 271.828 177.814 271.828 177.542C271.828 177.27 271.926 177.038 272.121 176.846C272.317 176.65 272.55 176.553 272.822 176.553C273.094 176.553 273.328 176.65 273.523 176.846C273.719 177.038 273.816 177.27 273.816 177.542C273.816 177.724 273.77 177.892 273.677 178.044C273.588 178.193 273.468 178.312 273.319 178.402C273.17 178.491 273.004 178.536 272.822 178.536ZM283.356 173.818V184H281.814V175.359H281.755L279.319 176.95V175.479L281.859 173.818H283.356ZM289.655 184.169C288.869 184.166 288.198 183.959 287.641 183.548C287.084 183.137 286.658 182.538 286.363 181.753C286.068 180.967 285.921 180.021 285.921 178.914C285.921 177.81 286.068 176.867 286.363 176.085C286.662 175.303 287.089 174.706 287.646 174.295C288.206 173.884 288.876 173.679 289.655 173.679C290.434 173.679 291.101 173.886 291.658 174.3C292.215 174.711 292.641 175.308 292.936 176.09C293.234 176.869 293.383 177.81 293.383 178.914C293.383 180.024 293.236 180.972 292.941 181.758C292.646 182.54 292.22 183.138 291.663 183.553C291.106 183.964 290.437 184.169 289.655 184.169ZM289.655 182.842C290.344 182.842 290.883 182.505 291.27 181.832C291.662 181.16 291.857 180.187 291.857 178.914C291.857 178.069 291.768 177.355 291.589 176.771C291.413 176.185 291.159 175.741 290.828 175.439C290.5 175.134 290.109 174.982 289.655 174.982C288.969 174.982 288.43 175.32 288.039 175.996C287.648 176.672 287.451 177.645 287.447 178.914C287.447 179.763 287.535 180.48 287.711 181.067C287.89 181.65 288.143 182.093 288.471 182.394C288.8 182.692 289.194 182.842 289.655 182.842ZM299.045 173.341L295.764 185.531H294.436L297.717 173.341H299.045ZM303.832 184.169C303.047 184.166 302.376 183.959 301.819 183.548C301.262 183.137 300.836 182.538 300.541 181.753C300.246 180.967 300.099 180.021 300.099 178.914C300.099 177.81 300.246 176.867 300.541 176.085C300.84 175.303 301.267 174.706 301.824 174.295C302.384 173.884 303.054 173.679 303.832 173.679C304.611 173.679 305.279 173.886 305.836 174.3C306.393 174.711 306.819 175.308 307.114 176.09C307.412 176.869 307.561 177.81 307.561 178.914C307.561 180.024 307.414 180.972 307.119 181.758C306.824 182.54 306.398 183.138 305.841 183.553C305.284 183.964 304.615 184.169 303.832 184.169ZM303.832 182.842C304.522 182.842 305.06 182.505 305.448 181.832C305.839 181.16 306.035 180.187 306.035 178.914C306.035 178.069 305.945 177.355 305.766 176.771C305.591 176.185 305.337 175.741 305.006 175.439C304.678 175.134 304.286 174.982 303.832 174.982C303.146 174.982 302.608 175.32 302.217 175.996C301.826 176.672 301.628 177.645 301.625 178.914C301.625 179.763 301.713 180.48 301.889 181.067C302.067 181.65 302.321 182.093 302.649 182.394C302.977 182.692 303.372 182.842 303.832 182.842ZM312.765 184.139C312.053 184.139 311.423 184.017 310.876 183.771C310.332 183.526 309.906 183.188 309.598 182.757C309.29 182.326 309.138 181.836 309.141 181.286C309.138 180.855 309.225 180.459 309.404 180.097C309.587 179.733 309.834 179.429 310.145 179.188C310.457 178.942 310.805 178.786 311.189 178.72V178.661C310.682 178.538 310.276 178.266 309.971 177.845C309.666 177.424 309.515 176.94 309.519 176.393C309.515 175.873 309.653 175.409 309.931 175.001C310.213 174.59 310.599 174.267 311.09 174.032C311.58 173.797 312.139 173.679 312.765 173.679C313.385 173.679 313.938 173.798 314.426 174.037C314.916 174.272 315.302 174.595 315.584 175.006C315.866 175.414 316.008 175.876 316.012 176.393C316.008 176.94 315.852 177.424 315.544 177.845C315.236 178.266 314.835 178.538 314.341 178.661V178.72C314.722 178.786 315.065 178.942 315.37 179.188C315.678 179.429 315.924 179.733 316.106 180.097C316.292 180.459 316.386 180.855 316.389 181.286C316.386 181.836 316.23 182.326 315.922 182.757C315.614 183.188 315.186 183.526 314.639 183.771C314.096 184.017 313.471 184.139 312.765 184.139ZM312.765 182.881C313.186 182.881 313.551 182.812 313.859 182.673C314.167 182.53 314.406 182.333 314.575 182.081C314.744 181.826 314.83 181.527 314.833 181.186C314.83 180.831 314.737 180.518 314.555 180.246C314.376 179.975 314.132 179.761 313.824 179.605C313.516 179.449 313.163 179.371 312.765 179.371C312.364 179.371 312.008 179.449 311.696 179.605C311.385 179.761 311.139 179.975 310.96 180.246C310.781 180.518 310.694 180.831 310.697 181.186C310.694 181.527 310.775 181.826 310.941 182.081C311.11 182.333 311.35 182.53 311.661 182.673C311.973 182.812 312.341 182.881 312.765 182.881ZM312.765 178.143C313.103 178.143 313.403 178.076 313.665 177.94C313.927 177.804 314.132 177.615 314.281 177.373C314.434 177.131 314.512 176.848 314.515 176.523C314.512 176.205 314.436 175.926 314.286 175.688C314.141 175.449 313.937 175.265 313.675 175.136C313.413 175.003 313.11 174.937 312.765 174.937C312.414 174.937 312.106 175.003 311.84 175.136C311.579 175.265 311.375 175.449 311.229 175.688C311.083 175.926 311.012 176.205 311.015 176.523C311.012 176.848 311.085 177.131 311.234 177.373C311.383 177.615 311.589 177.804 311.85 177.94C312.115 178.076 312.42 178.143 312.765 178.143ZM322.068 173.341L318.787 185.531H317.46L320.741 173.341H322.068ZM323.311 184V182.886L326.756 179.317C327.124 178.929 327.428 178.589 327.666 178.298C327.908 178.003 328.089 177.723 328.208 177.457C328.327 177.192 328.387 176.911 328.387 176.612C328.387 176.274 328.308 175.982 328.148 175.737C327.989 175.489 327.772 175.298 327.497 175.165C327.222 175.03 326.912 174.962 326.567 174.962C326.203 174.962 325.885 175.036 325.613 175.185C325.341 175.335 325.132 175.545 324.987 175.817C324.841 176.089 324.768 176.407 324.768 176.771H323.301C323.301 176.152 323.444 175.61 323.729 175.146C324.014 174.682 324.405 174.322 324.902 174.067C325.399 173.808 325.964 173.679 326.597 173.679C327.237 173.679 327.8 173.807 328.288 174.062C328.778 174.314 329.161 174.658 329.436 175.096C329.711 175.53 329.849 176.021 329.849 176.567C329.849 176.945 329.777 177.315 329.635 177.676C329.496 178.037 329.252 178.44 328.904 178.884C328.556 179.325 328.072 179.86 327.452 180.49L325.429 182.608V182.683H330.013V184H323.311ZM335.442 184.169C334.656 184.166 333.985 183.959 333.428 183.548C332.871 183.137 332.446 182.538 332.151 181.753C331.856 180.967 331.708 180.021 331.708 178.914C331.708 177.81 331.856 176.867 332.151 176.085C332.449 175.303 332.876 174.706 333.433 174.295C333.993 173.884 334.663 173.679 335.442 173.679C336.221 173.679 336.889 173.886 337.445 174.3C338.002 174.711 338.428 175.308 338.723 176.09C339.021 176.869 339.17 177.81 339.17 178.914C339.17 180.024 339.023 180.972 338.728 181.758C338.433 182.54 338.007 183.138 337.45 183.553C336.893 183.964 336.224 184.169 335.442 184.169ZM335.442 182.842C336.131 182.842 336.67 182.505 337.058 181.832C337.449 181.16 337.644 180.187 337.644 178.914C337.644 178.069 337.555 177.355 337.376 176.771C337.2 176.185 336.947 175.741 336.615 175.439C336.287 175.134 335.896 174.982 335.442 174.982C334.756 174.982 334.217 175.32 333.826 175.996C333.435 176.672 333.238 177.645 333.234 178.914C333.234 179.763 333.322 180.48 333.498 181.067C333.677 181.65 333.93 182.093 334.259 182.394C334.587 182.692 334.981 182.842 335.442 182.842ZM340.934 184V182.886L344.379 179.317C344.747 178.929 345.051 178.589 345.289 178.298C345.531 178.003 345.712 177.723 345.831 177.457C345.95 177.192 346.01 176.911 346.01 176.612C346.01 176.274 345.931 175.982 345.772 175.737C345.612 175.489 345.395 175.298 345.12 175.165C344.845 175.03 344.535 174.962 344.191 174.962C343.826 174.962 343.508 175.036 343.236 175.185C342.964 175.335 342.755 175.545 342.61 175.817C342.464 176.089 342.391 176.407 342.391 176.771H340.924C340.924 176.152 341.067 175.61 341.352 175.146C341.637 174.682 342.028 174.322 342.525 174.067C343.022 173.808 343.587 173.679 344.22 173.679C344.86 173.679 345.423 173.807 345.911 174.062C346.401 174.314 346.784 174.658 347.059 175.096C347.334 175.53 347.472 176.021 347.472 176.567C347.472 176.945 347.401 177.315 347.258 177.676C347.119 178.037 346.875 178.44 346.527 178.884C346.179 179.325 345.695 179.86 345.075 180.49L343.052 182.608V182.683H347.636V184H340.934ZM349.088 182.011V180.768L353.487 173.818H354.467V175.648H353.845L350.698 180.629V180.709H356.729V182.011H349.088ZM353.915 184V181.634L353.925 181.067V173.818H355.382V184H353.915Z" fill="black"/>
</g>
<g id="Frame 29">
<g id="Frame 31">
<g id="Button">
<rect x="24.5" y="213.5" width="484.333" height="39" rx="5.5" fill="#F8F8FA"/>
<rect x="24.5" y="213.5" width="484.333" height="39" rx="5.5" stroke="#E8E8ED"/>
<g id="Icon">
<mask id="mask0_1_6932" style="mask-type:alpha" maskUnits="userSpaceOnUse" x="213" y="225" width="17" height="16">
<g id="Container">
<g id="eye">
<path id="Vector" d="M214.541 233.232C214.486 233.082 214.486 232.918 214.541 232.768C215.082 231.456 216.001 230.334 217.18 229.545C218.36 228.755 219.747 228.334 221.167 228.334C222.586 228.334 223.973 228.755 225.153 229.545C226.332 230.334 227.251 231.456 227.792 232.768C227.847 232.918 227.847 233.082 227.792 233.232C227.251 234.544 226.332 235.666 225.153 236.455C223.973 237.245 222.586 237.666 221.167 237.666C219.747 237.666 218.36 237.245 217.18 236.455C216.001 235.666 215.082 234.544 214.541 233.232Z" stroke="black" stroke-width="0.8" stroke-linecap="round" stroke-linejoin="round"/>
<path id="Vector_2" d="M221.167 235C222.271 235 223.167 234.105 223.167 233C223.167 231.895 222.271 231 221.167 231C220.062 231 219.167 231.895 219.167 233C219.167 234.105 220.062 235 221.167 235Z" stroke="black" stroke-width="0.8" stroke-linecap="round" stroke-linejoin="round"/>
</g>
</g>
</mask>
<g mask="url(#mask0_1_6932)">
<rect id="Mask" x="213.167" y="225" width="16" height="16" fill="#181C4F"/>
</g>
</g>
<path id="Button_2" d="M239.533 227.818L242.183 235.832H242.287L244.932 227.818H246.961L243.371 238H241.094L237.51 227.818H239.533ZM250.782 238.149C250.017 238.149 249.356 237.99 248.799 237.672C248.245 237.35 247.819 236.896 247.521 236.31C247.223 235.72 247.074 235.025 247.074 234.227C247.074 233.441 247.223 232.752 247.521 232.158C247.823 231.562 248.244 231.098 248.784 230.766C249.324 230.432 249.959 230.264 250.688 230.264C251.159 230.264 251.603 230.34 252.02 230.493C252.441 230.642 252.813 230.874 253.134 231.189C253.459 231.504 253.714 231.905 253.9 232.392C254.085 232.876 254.178 233.453 254.178 234.122V234.674H247.919V233.461H252.453C252.45 233.116 252.375 232.81 252.229 232.541C252.083 232.269 251.88 232.056 251.618 231.9C251.359 231.744 251.058 231.666 250.713 231.666C250.345 231.666 250.022 231.756 249.743 231.935C249.465 232.11 249.248 232.342 249.092 232.631C248.94 232.916 248.862 233.229 248.858 233.57V234.629C248.858 235.073 248.94 235.455 249.102 235.773C249.264 236.088 249.491 236.33 249.783 236.499C250.075 236.664 250.416 236.747 250.807 236.747C251.069 236.747 251.306 236.711 251.518 236.638C251.73 236.562 251.914 236.451 252.07 236.305C252.226 236.159 252.344 235.978 252.423 235.763L254.103 235.952C253.997 236.396 253.795 236.784 253.497 237.115C253.202 237.443 252.824 237.698 252.363 237.881C251.903 238.06 251.376 238.149 250.782 238.149ZM255.701 238V230.364H257.446V231.636H257.525C257.664 231.196 257.903 230.856 258.241 230.617C258.582 230.375 258.972 230.254 259.409 230.254C259.509 230.254 259.62 230.259 259.742 230.269C259.868 230.276 259.973 230.287 260.056 230.304V231.96C259.979 231.933 259.859 231.91 259.693 231.89C259.53 231.867 259.373 231.855 259.22 231.855C258.892 231.855 258.597 231.926 258.336 232.069C258.077 232.208 257.873 232.402 257.724 232.651C257.575 232.899 257.5 233.186 257.5 233.511V238H255.701ZM264.724 240.864V230.364H266.494V231.626H266.598C266.691 231.441 266.822 231.244 266.991 231.035C267.16 230.823 267.389 230.642 267.677 230.493C267.966 230.34 268.333 230.264 268.781 230.264C269.371 230.264 269.903 230.415 270.377 230.717C270.854 231.015 271.232 231.457 271.51 232.044C271.792 232.627 271.933 233.343 271.933 234.192C271.933 235.03 271.795 235.743 271.52 236.33C271.245 236.916 270.871 237.364 270.397 237.672C269.923 237.98 269.386 238.134 268.786 238.134C268.348 238.134 267.985 238.061 267.697 237.915C267.409 237.77 267.177 237.594 267.001 237.388C266.829 237.18 266.694 236.982 266.598 236.797H266.524V240.864H264.724ZM266.489 234.182C266.489 234.676 266.559 235.108 266.698 235.479C266.84 235.851 267.044 236.141 267.309 236.349C267.578 236.555 267.903 236.658 268.284 236.658C268.681 236.658 269.015 236.552 269.283 236.339C269.551 236.124 269.754 235.831 269.89 235.46C270.029 235.085 270.098 234.659 270.098 234.182C270.098 233.708 270.03 233.287 269.894 232.919C269.759 232.551 269.556 232.263 269.288 232.054C269.019 231.845 268.685 231.741 268.284 231.741C267.899 231.741 267.573 231.842 267.304 232.044C267.036 232.246 266.832 232.53 266.693 232.894C266.557 233.259 266.489 233.688 266.489 234.182ZM273.474 238V230.364H275.219V231.636H275.299C275.438 231.196 275.676 230.856 276.015 230.617C276.356 230.375 276.745 230.254 277.183 230.254C277.282 230.254 277.393 230.259 277.516 230.269C277.642 230.276 277.746 230.287 277.829 230.304V231.96C277.753 231.933 277.632 231.91 277.466 231.89C277.304 231.867 277.146 231.855 276.994 231.855C276.666 231.855 276.371 231.926 276.109 232.069C275.85 232.208 275.647 232.402 275.497 232.651C275.348 232.899 275.274 233.186 275.274 233.511V238H273.474ZM282.041 238.149C281.296 238.149 280.649 237.985 280.102 237.657C279.556 237.329 279.131 236.87 278.83 236.28C278.531 235.69 278.382 235 278.382 234.212C278.382 233.423 278.531 232.732 278.83 232.138C279.131 231.545 279.556 231.085 280.102 230.756C280.649 230.428 281.296 230.264 282.041 230.264C282.787 230.264 283.433 230.428 283.98 230.756C284.527 231.085 284.95 231.545 285.248 232.138C285.55 232.732 285.7 233.423 285.7 234.212C285.7 235 285.55 235.69 285.248 236.28C284.95 236.87 284.527 237.329 283.98 237.657C283.433 237.985 282.787 238.149 282.041 238.149ZM282.051 236.707C282.456 236.707 282.794 236.596 283.065 236.374C283.337 236.149 283.539 235.847 283.672 235.469C283.808 235.092 283.876 234.671 283.876 234.207C283.876 233.739 283.808 233.317 283.672 232.939C283.539 232.558 283.337 232.254 283.065 232.029C282.794 231.804 282.456 231.691 282.051 231.691C281.637 231.691 281.292 231.804 281.017 232.029C280.745 232.254 280.542 232.558 280.406 232.939C280.273 233.317 280.207 233.739 280.207 234.207C280.207 234.671 280.273 235.092 280.406 235.469C280.542 235.847 280.745 236.149 281.017 236.374C281.292 236.596 281.637 236.707 282.051 236.707ZM287.228 230.364H289.028V238.438C289.028 238.988 288.923 239.442 288.714 239.8C288.506 240.158 288.204 240.424 287.81 240.6C287.415 240.776 286.936 240.864 286.373 240.864C286.307 240.864 286.245 240.862 286.189 240.859C286.133 240.859 286.071 240.857 286.005 240.854V239.387C286.055 239.39 286.099 239.392 286.139 239.392C286.179 239.395 286.22 239.397 286.263 239.397C286.608 239.397 286.855 239.313 287.004 239.143C287.153 238.978 287.228 238.734 287.228 238.413V230.364ZM288.123 229.28C287.834 229.28 287.588 229.185 287.382 228.996C287.18 228.804 287.079 228.574 287.079 228.305C287.079 228.034 287.18 227.803 287.382 227.614C287.588 227.422 287.834 227.326 288.123 227.326C288.408 227.326 288.651 227.422 288.854 227.614C289.059 227.803 289.162 228.034 289.162 228.305C289.162 228.574 289.059 228.804 288.854 228.996C288.651 229.185 288.408 229.28 288.123 229.28ZM294.259 238.149C293.493 238.149 292.832 237.99 292.275 237.672C291.722 237.35 291.296 236.896 290.998 236.31C290.699 235.72 290.55 235.025 290.55 234.227C290.55 233.441 290.699 232.752 290.998 232.158C291.299 231.562 291.72 231.098 292.26 230.766C292.801 230.432 293.435 230.264 294.165 230.264C294.635 230.264 295.079 230.34 295.497 230.493C295.918 230.642 296.289 230.874 296.611 231.189C296.935 231.504 297.191 231.905 297.376 232.392C297.562 232.876 297.655 233.453 297.655 234.122V234.674H291.395V233.461H295.929C295.926 233.116 295.852 232.81 295.706 232.541C295.56 232.269 295.356 232.056 295.094 231.9C294.836 231.744 294.534 231.666 294.189 231.666C293.822 231.666 293.498 231.756 293.22 231.935C292.942 232.11 292.724 232.342 292.569 232.631C292.416 232.916 292.338 233.229 292.335 233.57V234.629C292.335 235.073 292.416 235.455 292.579 235.773C292.741 236.088 292.968 236.33 293.26 236.499C293.551 236.664 293.893 236.747 294.284 236.747C294.546 236.747 294.783 236.711 294.995 236.638C295.207 236.562 295.391 236.451 295.547 236.305C295.702 236.159 295.82 235.978 295.9 235.763L297.58 235.952C297.474 236.396 297.272 236.784 296.974 237.115C296.679 237.443 296.301 237.698 295.84 237.881C295.379 238.06 294.852 238.149 294.259 238.149ZM302.99 230.364V231.756H298.6V230.364H302.99ZM299.684 228.534H301.484V235.703C301.484 235.945 301.52 236.131 301.593 236.26C301.67 236.386 301.769 236.472 301.892 236.518C302.014 236.565 302.15 236.588 302.299 236.588C302.412 236.588 302.515 236.58 302.608 236.563C302.704 236.547 302.777 236.532 302.826 236.518L303.13 237.925C303.033 237.959 302.896 237.995 302.717 238.035C302.541 238.075 302.326 238.098 302.071 238.104C301.62 238.118 301.214 238.05 300.853 237.901C300.491 237.748 300.205 237.513 299.992 237.195C299.784 236.876 299.681 236.479 299.684 236.001V228.534ZM307.744 238.149C306.999 238.149 306.352 237.985 305.806 237.657C305.259 237.329 304.834 236.87 304.533 236.28C304.235 235.69 304.085 235 304.085 234.212C304.085 233.423 304.235 232.732 304.533 232.138C304.834 231.545 305.259 231.085 305.806 230.756C306.352 230.428 306.999 230.264 307.744 230.264C308.49 230.264 309.136 230.428 309.683 230.756C310.23 231.085 310.653 231.545 310.951 232.138C311.253 232.732 311.404 233.423 311.404 234.212C311.404 235 311.253 235.69 310.951 236.28C310.653 236.87 310.23 237.329 309.683 237.657C309.136 237.985 308.49 238.149 307.744 238.149ZM307.754 236.707C308.159 236.707 308.497 236.596 308.769 236.374C309.04 236.149 309.243 235.847 309.375 235.469C309.511 235.092 309.579 234.671 309.579 234.207C309.579 233.739 309.511 233.317 309.375 232.939C309.243 232.558 309.04 232.254 308.769 232.029C308.497 231.804 308.159 231.691 307.754 231.691C307.34 231.691 306.995 231.804 306.72 232.029C306.449 232.254 306.245 232.558 306.109 232.939C305.976 233.317 305.91 233.739 305.91 234.207C305.91 234.671 305.976 235.092 306.109 235.469C306.245 235.847 306.449 236.149 306.72 236.374C306.995 236.596 307.34 236.707 307.754 236.707ZM318.967 232.382L317.326 232.561C317.28 232.395 317.198 232.24 317.082 232.094C316.97 231.948 316.817 231.83 316.625 231.741C316.433 231.651 316.197 231.607 315.919 231.607C315.544 231.607 315.23 231.688 314.974 231.85C314.722 232.013 314.598 232.223 314.602 232.482C314.598 232.704 314.679 232.884 314.845 233.023C315.014 233.163 315.293 233.277 315.68 233.366L316.983 233.645C317.705 233.801 318.242 234.048 318.594 234.386C318.948 234.724 319.127 235.166 319.131 235.713C319.127 236.194 318.986 236.618 318.708 236.986C318.433 237.35 318.05 237.635 317.56 237.841C317.069 238.046 316.506 238.149 315.869 238.149C314.935 238.149 314.182 237.954 313.612 237.562C313.042 237.168 312.702 236.62 312.593 235.917L314.348 235.748C314.428 236.093 314.597 236.353 314.855 236.528C315.114 236.704 315.45 236.792 315.864 236.792C316.292 236.792 316.635 236.704 316.893 236.528C317.155 236.353 317.286 236.136 317.286 235.877C317.286 235.658 317.202 235.478 317.033 235.335C316.867 235.193 316.608 235.083 316.257 235.007L314.955 234.734C314.222 234.581 313.68 234.324 313.329 233.963C312.977 233.598 312.803 233.138 312.807 232.581C312.803 232.11 312.931 231.703 313.19 231.358C313.451 231.01 313.814 230.741 314.278 230.553C314.746 230.36 315.284 230.264 315.894 230.264C316.789 230.264 317.493 230.455 318.007 230.836C318.524 231.217 318.844 231.732 318.967 232.382Z" fill="#181C4F"/>
</g>
</g>
<g id="Frame 27">
<g id="Button_3">
<g id="Icon_2">
<mask id="mask1_1_6932" style="mask-type:alpha" maskUnits="userSpaceOnUse" x="99" y="273" width="17" height="16">
<g id="Container_2">
<g id="users">
<path id="Vector_3" d="M110 287V285.667C110 284.959 109.719 284.281 109.219 283.781C108.719 283.281 108.041 283 107.334 283H103.334C102.626 283 101.948 283.281 101.448 283.781C100.948 284.281 100.667 284.959 100.667 285.667V287" stroke="black" stroke-width="0.8" stroke-linecap="round" stroke-linejoin="round"/>
<path id="Vector_4" d="M110 275.085C110.572 275.234 111.078 275.568 111.44 276.035C111.801 276.502 111.997 277.076 111.997 277.667C111.997 278.257 111.801 278.831 111.44 279.299C111.078 279.766 110.572 280.1 110 280.248" stroke="black" stroke-width="0.8" stroke-linecap="round" stroke-linejoin="round"/>
<path id="Vector_5" d="M114 287V285.667C114 285.076 113.803 284.502 113.441 284.035C113.079 283.568 112.572 283.234 112 283.087" stroke="black" stroke-width="0.8" stroke-linecap="round" stroke-linejoin="round"/>
<path id="Vector_6" d="M105.334 280.333C106.806 280.333 108 279.139 108 277.667C108 276.194 106.806 275 105.334 275C103.861 275 102.667 276.194 102.667 277.667C102.667 279.139 103.861 280.333 105.334 280.333Z" stroke="black" stroke-width="0.8" stroke-linecap="round" stroke-linejoin="round"/>
</g>
</g>
</mask>
<g mask="url(#mask1_1_6932)">
<rect id="Mask_2" x="99.3335" y="273" width="16" height="16" fill="#181C4F"/>
</g>
</g>
<path id="Button_4" d="M130.756 275.818H132.601V282.47C132.601 283.199 132.428 283.841 132.083 284.394C131.742 284.948 131.262 285.38 130.642 285.692C130.022 286 129.298 286.154 128.469 286.154C127.637 286.154 126.911 286 126.292 285.692C125.672 285.38 125.191 284.948 124.85 284.394C124.508 283.841 124.338 283.199 124.338 282.47V275.818H126.182V282.316C126.182 282.74 126.275 283.118 126.461 283.45C126.65 283.781 126.915 284.041 127.256 284.23C127.597 284.416 128.002 284.509 128.469 284.509C128.936 284.509 129.341 284.416 129.682 284.23C130.027 284.041 130.292 283.781 130.478 283.45C130.663 283.118 130.756 282.74 130.756 282.316V275.818ZM140.561 280.382L138.921 280.561C138.874 280.395 138.793 280.24 138.677 280.094C138.564 279.948 138.412 279.83 138.22 279.741C138.027 279.651 137.792 279.607 137.514 279.607C137.139 279.607 136.824 279.688 136.569 279.85C136.317 280.013 136.193 280.223 136.196 280.482C136.193 280.704 136.274 280.884 136.44 281.023C136.609 281.163 136.887 281.277 137.275 281.366L138.578 281.645C139.3 281.801 139.837 282.048 140.188 282.386C140.543 282.724 140.722 283.166 140.725 283.713C140.722 284.194 140.581 284.618 140.303 284.986C140.028 285.35 139.645 285.635 139.154 285.841C138.664 286.046 138.1 286.149 137.464 286.149C136.529 286.149 135.777 285.954 135.207 285.562C134.637 285.168 134.297 284.62 134.188 283.917L135.943 283.748C136.022 284.093 136.191 284.353 136.45 284.528C136.708 284.704 137.045 284.792 137.459 284.792C137.887 284.792 138.23 284.704 138.488 284.528C138.75 284.353 138.881 284.136 138.881 283.877C138.881 283.658 138.796 283.478 138.627 283.335C138.462 283.193 138.203 283.083 137.852 283.007L136.549 282.734C135.817 282.581 135.275 282.324 134.924 281.963C134.572 281.598 134.398 281.138 134.402 280.581C134.398 280.11 134.526 279.703 134.784 279.358C135.046 279.01 135.409 278.741 135.873 278.553C136.34 278.36 136.879 278.264 137.489 278.264C138.384 278.264 139.088 278.455 139.602 278.836C140.119 279.217 140.439 279.732 140.561 280.382ZM147.077 282.788V278.364H148.876V286H147.131V284.643H147.052C146.879 285.07 146.596 285.42 146.202 285.692C145.81 285.964 145.328 286.099 144.755 286.099C144.254 286.099 143.812 285.988 143.427 285.766C143.046 285.541 142.748 285.214 142.533 284.787C142.317 284.356 142.209 283.836 142.209 283.226V278.364H144.009V282.947C144.009 283.431 144.142 283.816 144.407 284.101C144.672 284.386 145.02 284.528 145.451 284.528C145.716 284.528 145.973 284.464 146.221 284.335C146.47 284.205 146.674 284.013 146.833 283.758C146.995 283.499 147.077 283.176 147.077 282.788ZM152.924 286.154C152.441 286.154 152.005 286.068 151.617 285.896C151.232 285.72 150.927 285.461 150.702 285.12C150.48 284.779 150.369 284.358 150.369 283.857C150.369 283.426 150.449 283.07 150.608 282.788C150.767 282.507 150.984 282.281 151.259 282.112C151.534 281.943 151.844 281.816 152.189 281.729C152.537 281.64 152.896 281.575 153.267 281.536C153.715 281.489 154.078 281.448 154.356 281.411C154.635 281.371 154.837 281.312 154.963 281.232C155.092 281.149 155.157 281.022 155.157 280.849V280.82C155.157 280.445 155.046 280.155 154.824 279.95C154.601 279.744 154.282 279.641 153.864 279.641C153.423 279.641 153.074 279.737 152.815 279.93C152.56 280.122 152.387 280.349 152.298 280.611L150.618 280.372C150.75 279.908 150.969 279.52 151.274 279.209C151.579 278.894 151.952 278.659 152.392 278.503C152.833 278.344 153.32 278.264 153.854 278.264C154.222 278.264 154.588 278.307 154.953 278.393C155.317 278.48 155.65 278.622 155.952 278.821C156.254 279.017 156.496 279.283 156.678 279.621C156.864 279.96 156.956 280.382 156.956 280.889V286H155.226V284.951H155.167C155.057 285.163 154.903 285.362 154.704 285.548C154.509 285.73 154.262 285.877 153.963 285.99C153.668 286.099 153.322 286.154 152.924 286.154ZM153.392 284.832C153.753 284.832 154.066 284.76 154.331 284.618C154.597 284.472 154.8 284.28 154.943 284.041C155.089 283.803 155.162 283.542 155.162 283.261V282.361C155.105 282.407 155.009 282.45 154.873 282.49C154.741 282.53 154.592 282.565 154.426 282.594C154.26 282.624 154.096 282.651 153.934 282.674C153.771 282.697 153.63 282.717 153.511 282.734C153.243 282.77 153.002 282.83 152.79 282.913C152.578 282.996 152.411 283.112 152.288 283.261C152.165 283.406 152.104 283.595 152.104 283.827C152.104 284.159 152.225 284.409 152.467 284.578C152.709 284.747 153.017 284.832 153.392 284.832ZM153.243 277.359L154.356 275.087H156.116L154.59 277.359H153.243ZM158.766 286V278.364H160.511V279.636H160.591C160.73 279.196 160.968 278.856 161.307 278.617C161.648 278.375 162.037 278.254 162.475 278.254C162.574 278.254 162.685 278.259 162.808 278.269C162.934 278.276 163.038 278.287 163.121 278.304V279.96C163.045 279.933 162.924 279.91 162.758 279.89C162.596 279.867 162.438 279.855 162.286 279.855C161.958 279.855 161.663 279.926 161.401 280.069C161.142 280.208 160.939 280.402 160.789 280.651C160.64 280.899 160.566 281.186 160.566 281.511V286H158.766ZM164.317 286V278.364H166.117V286H164.317ZM165.222 277.28C164.937 277.28 164.691 277.185 164.486 276.996C164.28 276.804 164.178 276.574 164.178 276.305C164.178 276.034 164.28 275.803 164.486 275.614C164.691 275.422 164.937 275.326 165.222 275.326C165.51 275.326 165.755 275.422 165.957 275.614C166.163 275.803 166.266 276.034 166.266 276.305C166.266 276.574 166.163 276.804 165.957 276.996C165.755 277.185 165.51 277.28 165.222 277.28ZM171.298 286.149C170.552 286.149 169.906 285.985 169.359 285.657C168.812 285.329 168.388 284.87 168.087 284.28C167.788 283.69 167.639 283 167.639 282.212C167.639 281.423 167.788 280.732 168.087 280.138C168.388 279.545 168.812 279.085 169.359 278.756C169.906 278.428 170.552 278.264 171.298 278.264C172.044 278.264 172.69 278.428 173.237 278.756C173.784 279.085 174.207 279.545 174.505 280.138C174.806 280.732 174.957 281.423 174.957 282.212C174.957 283 174.806 283.69 174.505 284.28C174.207 284.87 173.784 285.329 173.237 285.657C172.69 285.985 172.044 286.149 171.298 286.149ZM171.308 284.707C171.712 284.707 172.051 284.596 172.322 284.374C172.594 284.149 172.796 283.847 172.929 283.469C173.065 283.092 173.133 282.671 173.133 282.207C173.133 281.739 173.065 281.317 172.929 280.939C172.796 280.558 172.594 280.254 172.322 280.029C172.051 279.804 171.712 279.691 171.308 279.691C170.894 279.691 170.549 279.804 170.274 280.029C170.002 280.254 169.798 280.558 169.663 280.939C169.53 281.317 169.464 281.739 169.464 282.207C169.464 282.671 169.53 283.092 169.663 283.469C169.798 283.847 170.002 284.149 170.274 284.374C170.549 284.596 170.894 284.707 171.308 284.707ZM182.52 280.382L180.88 280.561C180.833 280.395 180.752 280.24 180.636 280.094C180.523 279.948 180.371 279.83 180.179 279.741C179.986 279.651 179.751 279.607 179.473 279.607C179.098 279.607 178.783 279.688 178.528 279.85C178.276 280.013 178.152 280.223 178.155 280.482C178.152 280.704 178.233 280.884 178.399 281.023C178.568 281.163 178.846 281.277 179.234 281.366L180.537 281.645C181.259 281.801 181.796 282.048 182.147 282.386C182.502 282.724 182.681 283.166 182.684 283.713C182.681 284.194 182.54 284.618 182.262 284.986C181.987 285.35 181.604 285.635 181.113 285.841C180.623 286.046 180.059 286.149 179.423 286.149C178.488 286.149 177.736 285.954 177.166 285.562C176.596 285.168 176.256 284.62 176.147 283.917L177.902 283.748C177.981 284.093 178.15 284.353 178.409 284.528C178.667 284.704 179.004 284.792 179.418 284.792C179.846 284.792 180.189 284.704 180.447 284.528C180.709 284.353 180.84 284.136 180.84 283.877C180.84 283.658 180.755 283.478 180.586 283.335C180.421 283.193 180.162 283.083 179.811 283.007L178.508 282.734C177.776 282.581 177.234 282.324 176.883 281.963C176.531 281.598 176.357 281.138 176.36 280.581C176.357 280.11 176.485 279.703 176.743 279.358C177.005 279.01 177.368 278.741 177.832 278.553C178.299 278.36 178.838 278.264 179.448 278.264C180.343 278.264 181.047 278.455 181.561 278.836C182.078 279.217 182.398 279.732 182.52 280.382Z" fill="#181C4F"/>
</g>
<g id="Button_5">
<g id="Icon_3">
<mask id="mask2_1_6932" style="mask-type:alpha" maskUnits="userSpaceOnUse" x="360" y="273" width="16" height="16">
<g id="Container_3">
<g id="eye_2">
<path id="Vector_7" d="M361.375 281.232C361.319 281.082 361.319 280.918 361.375 280.768C361.916 279.456 362.834 278.334 364.014 277.545C365.193 276.755 366.581 276.334 368 276.334C369.419 276.334 370.807 276.755 371.986 277.545C373.166 278.334 374.084 279.456 374.625 280.768C374.681 280.918 374.681 281.082 374.625 281.232C374.084 282.544 373.166 283.666 371.986 284.455C370.807 285.245 369.419 285.666 368 285.666C366.581 285.666 365.193 285.245 364.014 284.455C362.834 283.666 361.916 282.544 361.375 281.232Z" stroke="black" stroke-width="0.8" stroke-linecap="round" stroke-linejoin="round"/>
<path id="Vector_8" d="M368 283C369.105 283 370 282.105 370 281C370 279.895 369.105 279 368 279C366.895 279 366 279.895 366 281C366 282.105 366.895 283 368 283Z" stroke="black" stroke-width="0.8" stroke-linecap="round" stroke-linejoin="round"/>
</g>
</g>
</mask>
<g mask="url(#mask2_1_6932)">
<rect id="Mask_3" x="360" y="273" width="16" height="16" fill="#181C4F"/>
</g>
</g>
<path id="Button_6" d="M385.004 286V275.818H391.626V277.364H386.849V280.129H391.283V281.675H386.849V284.454H391.666V286H385.004ZM396.262 286.134C395.663 286.134 395.126 285.98 394.652 285.672C394.178 285.364 393.803 284.916 393.528 284.33C393.253 283.743 393.115 283.03 393.115 282.192C393.115 281.343 393.255 280.627 393.533 280.044C393.815 279.457 394.194 279.015 394.672 278.717C395.149 278.415 395.681 278.264 396.267 278.264C396.715 278.264 397.083 278.34 397.371 278.493C397.659 278.642 397.888 278.823 398.057 279.035C398.226 279.244 398.357 279.441 398.45 279.626H398.525V275.818H400.329V286H398.559V284.797H398.45C398.357 284.982 398.223 285.18 398.047 285.388C397.872 285.594 397.64 285.77 397.351 285.915C397.063 286.061 396.7 286.134 396.262 286.134ZM396.765 284.658C397.146 284.658 397.471 284.555 397.739 284.349C398.007 284.141 398.211 283.851 398.35 283.479C398.49 283.108 398.559 282.676 398.559 282.182C398.559 281.688 398.49 281.259 398.35 280.894C398.215 280.53 398.012 280.246 397.744 280.044C397.479 279.842 397.152 279.741 396.765 279.741C396.364 279.741 396.029 279.845 395.76 280.054C395.492 280.263 395.29 280.551 395.154 280.919C395.018 281.287 394.95 281.708 394.95 282.182C394.95 282.659 395.018 283.085 395.154 283.46C395.293 283.831 395.497 284.124 395.765 284.339C396.037 284.552 396.37 284.658 396.765 284.658ZM402.247 286V278.364H404.047V286H402.247ZM403.152 277.28C402.867 277.28 402.622 277.185 402.416 276.996C402.211 276.804 402.108 276.574 402.108 276.305C402.108 276.034 402.211 275.803 402.416 275.614C402.622 275.422 402.867 275.326 403.152 275.326C403.44 275.326 403.685 275.422 403.888 275.614C404.093 275.803 404.196 276.034 404.196 276.305C404.196 276.574 404.093 276.804 403.888 276.996C403.685 277.185 403.44 277.28 403.152 277.28ZM409.711 278.364V279.756H405.321V278.364H409.711ZM406.404 276.534H408.204V283.703C408.204 283.945 408.241 284.131 408.314 284.26C408.39 284.386 408.489 284.472 408.612 284.518C408.734 284.565 408.87 284.588 409.02 284.588C409.132 284.588 409.235 284.58 409.328 284.563C409.424 284.547 409.497 284.532 409.547 284.518L409.85 285.925C409.754 285.959 409.616 285.995 409.437 286.035C409.261 286.075 409.046 286.098 408.791 286.104C408.34 286.118 407.934 286.05 407.573 285.901C407.212 285.748 406.925 285.513 406.713 285.195C406.504 284.876 406.401 284.479 406.404 284.001V276.534ZM413.413 286.154C412.929 286.154 412.493 286.068 412.106 285.896C411.721 285.72 411.416 285.461 411.191 285.12C410.969 284.779 410.858 284.358 410.858 283.857C410.858 283.426 410.937 283.07 411.096 282.788C411.256 282.507 411.473 282.281 411.748 282.112C412.023 281.943 412.333 281.816 412.677 281.729C413.025 281.64 413.385 281.575 413.756 281.536C414.204 281.489 414.567 281.448 414.845 281.411C415.123 281.371 415.326 281.312 415.452 281.232C415.581 281.149 415.645 281.022 415.645 280.849V280.82C415.645 280.445 415.534 280.155 415.312 279.95C415.09 279.744 414.77 279.641 414.353 279.641C413.912 279.641 413.562 279.737 413.304 279.93C413.049 280.122 412.876 280.349 412.787 280.611L411.106 280.372C411.239 279.908 411.458 279.52 411.763 279.209C412.068 278.894 412.44 278.659 412.881 278.503C413.322 278.344 413.809 278.264 414.343 278.264C414.711 278.264 415.077 278.307 415.442 278.393C415.806 278.48 416.139 278.622 416.441 278.821C416.742 279.017 416.984 279.283 417.167 279.621C417.352 279.96 417.445 280.382 417.445 280.889V286H415.715V284.951H415.655C415.546 285.163 415.392 285.362 415.193 285.548C414.997 285.73 414.751 285.877 414.452 285.99C414.157 286.099 413.811 286.154 413.413 286.154ZM413.881 284.832C414.242 284.832 414.555 284.76 414.82 284.618C415.085 284.472 415.289 284.28 415.432 284.041C415.577 283.803 415.65 283.542 415.65 283.261V282.361C415.594 282.407 415.498 282.45 415.362 282.49C415.229 282.53 415.08 282.565 414.915 282.594C414.749 282.624 414.585 282.651 414.422 282.674C414.26 282.697 414.119 282.717 414 282.734C413.731 282.77 413.491 282.83 413.279 282.913C413.067 282.996 412.899 283.112 412.777 283.261C412.654 283.406 412.593 283.595 412.593 283.827C412.593 284.159 412.714 284.409 412.956 284.578C413.198 284.747 413.506 284.832 413.881 284.832ZM419.255 286V278.364H421V279.636H421.079C421.219 279.196 421.457 278.856 421.795 278.617C422.137 278.375 422.526 278.254 422.964 278.254C423.063 278.254 423.174 278.259 423.297 278.269C423.423 278.276 423.527 278.287 423.61 278.304V279.96C423.534 279.933 423.413 279.91 423.247 279.89C423.085 279.867 422.927 279.855 422.775 279.855C422.447 279.855 422.152 279.926 421.89 280.069C421.631 280.208 421.427 280.402 421.278 280.651C421.129 280.899 421.055 281.186 421.055 281.511V286H419.255Z" fill="#181C4F"/>
</g>
</g>
<g id="Frame 28">
<g id="Button_7">
<g id="Icon_4">
<mask id="mask3_1_6932" style="mask-type:alpha" maskUnits="userSpaceOnUse" x="99" y="321" width="17" height="16">
<g id="Container_4">
<g id="file">
<path id="Vector_9" d="M109.833 322.333H103.833C103.48 322.333 103.141 322.474 102.891 322.724C102.64 322.974 102.5 323.313 102.5 323.667V334.333C102.5 334.687 102.64 335.026 102.891 335.276C103.141 335.526 103.48 335.667 103.833 335.667H111.833C112.187 335.667 112.526 335.526 112.776 335.276C113.026 335.026 113.167 334.687 113.167 334.333V325.667L109.833 322.333Z" stroke="black" stroke-width="0.8" stroke-linecap="round" stroke-linejoin="round"/>
<path id="Vector_10" d="M109.167 322.333V325C109.167 325.354 109.307 325.693 109.558 325.943C109.808 326.193 110.147 326.333 110.5 326.333H113.167" stroke="black" stroke-width="0.8" stroke-linecap="round" stroke-linejoin="round"/>
<path id="Vector_11" d="M106.5 327H105.167" stroke="black" stroke-width="0.8" stroke-linecap="round" stroke-linejoin="round"/>
<path id="Vector_12" d="M110.5 329.667H105.167" stroke="black" stroke-width="0.8" stroke-linecap="round" stroke-linejoin="round"/>
<path id="Vector_13" d="M110.5 332.333H105.167" stroke="black" stroke-width="0.8" stroke-linecap="round" stroke-linejoin="round"/>
</g>
</g>
</mask>
<g mask="url(#mask3_1_6932)">
<rect id="Mask_4" x="99.8335" y="321" width="16" height="16" fill="#181C4F"/>
</g>
</g>
<path id="Button_8" d="M124.838 323.818H127.095L130.118 331.196H130.237L133.26 323.818H135.517V334H133.747V327.005H133.652L130.838 333.97H129.516L126.702 326.99H126.608V334H124.838V323.818ZM140.777 334.149C140.031 334.149 139.385 333.985 138.838 333.657C138.291 333.329 137.867 332.87 137.565 332.28C137.267 331.69 137.118 331 137.118 330.212C137.118 329.423 137.267 328.732 137.565 328.138C137.867 327.545 138.291 327.085 138.838 326.756C139.385 326.428 140.031 326.264 140.777 326.264C141.522 326.264 142.169 326.428 142.716 326.756C143.262 327.085 143.685 327.545 143.983 328.138C144.285 328.732 144.436 329.423 144.436 330.212C144.436 331 144.285 331.69 143.983 332.28C143.685 332.87 143.262 333.329 142.716 333.657C142.169 333.985 141.522 334.149 140.777 334.149ZM140.787 332.707C141.191 332.707 141.529 332.596 141.801 332.374C142.073 332.149 142.275 331.847 142.407 331.469C142.543 331.092 142.611 330.671 142.611 330.207C142.611 329.739 142.543 329.317 142.407 328.939C142.275 328.558 142.073 328.254 141.801 328.029C141.529 327.804 141.191 327.691 140.787 327.691C140.372 327.691 140.028 327.804 139.753 328.029C139.481 328.254 139.277 328.558 139.141 328.939C139.008 329.317 138.942 329.739 138.942 330.207C138.942 330.671 139.008 331.092 139.141 331.469C139.277 331.847 139.481 332.149 139.753 332.374C140.028 332.596 140.372 332.707 140.787 332.707ZM148.797 334.134C148.197 334.134 147.66 333.98 147.186 333.672C146.712 333.364 146.338 332.916 146.063 332.33C145.788 331.743 145.65 331.03 145.65 330.192C145.65 329.343 145.789 328.627 146.068 328.044C146.349 327.457 146.729 327.015 147.206 326.717C147.683 326.415 148.215 326.264 148.802 326.264C149.25 326.264 149.617 326.34 149.906 326.493C150.194 326.642 150.423 326.823 150.592 327.035C150.761 327.244 150.892 327.441 150.985 327.626H151.059V323.818H152.864V334H151.094V332.797H150.985C150.892 332.982 150.758 333.18 150.582 333.388C150.406 333.594 150.174 333.77 149.886 333.915C149.598 334.061 149.235 334.134 148.797 334.134ZM149.299 332.658C149.68 332.658 150.005 332.555 150.274 332.349C150.542 332.141 150.746 331.851 150.885 331.479C151.024 331.108 151.094 330.676 151.094 330.182C151.094 329.688 151.024 329.259 150.885 328.894C150.749 328.53 150.547 328.246 150.279 328.044C150.013 327.842 149.687 327.741 149.299 327.741C148.898 327.741 148.563 327.845 148.295 328.054C148.027 328.263 147.824 328.551 147.688 328.919C147.553 329.287 147.485 329.708 147.485 330.182C147.485 330.659 147.553 331.085 147.688 331.46C147.828 331.831 148.031 332.124 148.3 332.339C148.572 332.552 148.905 332.658 149.299 332.658ZM158.162 334.149C157.397 334.149 156.735 333.99 156.179 333.672C155.625 333.35 155.199 332.896 154.901 332.31C154.603 331.72 154.454 331.025 154.454 330.227C154.454 329.441 154.603 328.752 154.901 328.158C155.203 327.562 155.624 327.098 156.164 326.766C156.704 326.432 157.339 326.264 158.068 326.264C158.539 326.264 158.983 326.34 159.4 326.493C159.821 326.642 160.192 326.874 160.514 327.189C160.839 327.504 161.094 327.905 161.28 328.392C161.465 328.876 161.558 329.453 161.558 330.122V330.674H155.299V329.461H159.833C159.829 329.116 159.755 328.81 159.609 328.541C159.463 328.269 159.259 328.056 158.998 327.9C158.739 327.744 158.437 327.666 158.093 327.666C157.725 327.666 157.402 327.756 157.123 327.935C156.845 328.11 156.628 328.342 156.472 328.631C156.32 328.916 156.242 329.229 156.238 329.57V330.629C156.238 331.073 156.32 331.455 156.482 331.773C156.644 332.088 156.871 332.33 157.163 332.499C157.455 332.664 157.796 332.747 158.187 332.747C158.449 332.747 158.686 332.711 158.898 332.638C159.11 332.562 159.294 332.451 159.45 332.305C159.606 332.159 159.723 331.978 159.803 331.763L161.483 331.952C161.377 332.396 161.175 332.784 160.877 333.115C160.582 333.443 160.204 333.698 159.743 333.881C159.283 334.06 158.756 334.149 158.162 334.149ZM164.88 323.818V334H163.08V323.818H164.88ZM170.062 334.149C169.316 334.149 168.67 333.985 168.123 333.657C167.576 333.329 167.152 332.87 166.85 332.28C166.552 331.69 166.403 331 166.403 330.212C166.403 329.423 166.552 328.732 166.85 328.138C167.152 327.545 167.576 327.085 168.123 326.756C168.67 326.428 169.316 326.264 170.062 326.264C170.808 326.264 171.454 326.428 172.001 326.756C172.548 327.085 172.97 327.545 173.269 328.138C173.57 328.732 173.721 329.423 173.721 330.212C173.721 331 173.57 331.69 173.269 332.28C172.97 332.87 172.548 333.329 172.001 333.657C171.454 333.985 170.808 334.149 170.062 334.149ZM170.072 332.707C170.476 332.707 170.814 332.596 171.086 332.374C171.358 332.149 171.56 331.847 171.693 331.469C171.828 331.092 171.896 330.671 171.896 330.207C171.896 329.739 171.828 329.317 171.693 328.939C171.56 328.558 171.358 328.254 171.086 328.029C170.814 327.804 170.476 327.691 170.072 327.691C169.657 327.691 169.313 327.804 169.038 328.029C168.766 328.254 168.562 328.558 168.426 328.939C168.294 329.317 168.227 329.739 168.227 330.207C168.227 330.671 168.294 331.092 168.426 331.469C168.562 331.847 168.766 332.149 169.038 332.374C169.313 332.596 169.657 332.707 170.072 332.707ZM181.284 328.382L179.643 328.561C179.597 328.395 179.516 328.24 179.4 328.094C179.287 327.948 179.135 327.83 178.942 327.741C178.75 327.651 178.515 327.607 178.236 327.607C177.862 327.607 177.547 327.688 177.292 327.85C177.04 328.013 176.916 328.223 176.919 328.482C176.916 328.704 176.997 328.884 177.163 329.023C177.332 329.163 177.61 329.277 177.998 329.366L179.3 329.645C180.023 329.801 180.56 330.048 180.911 330.386C181.266 330.724 181.445 331.166 181.448 331.713C181.445 332.194 181.304 332.618 181.025 332.986C180.75 333.35 180.368 333.635 179.877 333.841C179.386 334.046 178.823 334.149 178.187 334.149C177.252 334.149 176.5 333.954 175.93 333.562C175.359 333.168 175.02 332.62 174.91 331.917L176.665 331.748C176.745 332.093 176.914 332.353 177.172 332.528C177.431 332.704 177.767 332.792 178.182 332.792C178.609 332.792 178.952 332.704 179.211 332.528C179.473 332.353 179.604 332.136 179.604 331.877C179.604 331.658 179.519 331.478 179.35 331.335C179.184 331.193 178.926 331.083 178.574 331.007L177.272 330.734C176.539 330.581 175.997 330.324 175.646 329.963C175.295 329.598 175.121 329.138 175.124 328.581C175.121 328.11 175.248 327.703 175.507 327.358C175.769 327.01 176.132 326.741 176.596 326.553C177.063 326.36 177.602 326.264 178.212 326.264C179.106 326.264 179.811 326.455 180.324 326.836C180.841 327.217 181.161 327.732 181.284 328.382Z" fill="#181C4F"/>
</g>
<g id="Button_9">
<g id="Icon_5">
<mask id="mask4_1_6932" style="mask-type:alpha" maskUnits="userSpaceOnUse" x="351" y="321" width="16" height="16">
<g id="Container_5">
<g id="archive">
<path id="Vector_14" d="M365 323H353C352.632 323 352.333 323.298 352.333 323.667V325.667C352.333 326.035 352.632 326.333 353 326.333H365C365.368 326.333 365.667 326.035 365.667 325.667V323.667C365.667 323.298 365.368 323 365 323Z" stroke="black" stroke-width="0.8" stroke-linecap="round" stroke-linejoin="round"/>
<path id="Vector_15" d="M353.667 326.333V333.667C353.667 334.02 353.807 334.359 354.057 334.609C354.307 334.86 354.646 335 355 335H363C363.353 335 363.693 334.86 363.943 334.609C364.193 334.359 364.333 334.02 364.333 333.667V326.333" stroke="black" stroke-width="0.8" stroke-linecap="round" stroke-linejoin="round"/>
<path id="Vector_16" d="M357.667 329H360.333" stroke="black" stroke-width="0.8" stroke-linecap="round" stroke-linejoin="round"/>
</g>
</g>
</mask>
<g mask="url(#mask4_1_6932)">
<rect id="Mask_5" x="351" y="321" width="16" height="16" fill="#181C4F"/>
</g>
</g>
<path id="Button_10" d="M377.312 334H375.343L378.928 323.818H381.205L384.794 334H382.825L380.106 325.906H380.026L377.312 334ZM377.376 330.008H382.746V331.489H377.376V330.008ZM386.056 334V326.364H387.801V327.636H387.88C388.019 327.196 388.258 326.856 388.596 326.617C388.937 326.375 389.327 326.254 389.764 326.254C389.864 326.254 389.975 326.259 390.097 326.269C390.223 326.276 390.328 326.287 390.411 326.304V327.96C390.334 327.933 390.213 327.91 390.048 327.89C389.885 327.867 389.728 327.855 389.575 327.855C389.247 327.855 388.952 327.926 388.691 328.069C388.432 328.208 388.228 328.402 388.079 328.651C387.93 328.899 387.855 329.186 387.855 329.511V334H386.056ZM396.388 336.864V332.797H396.313C396.22 332.982 396.086 333.18 395.911 333.388C395.735 333.594 395.503 333.77 395.214 333.915C394.926 334.061 394.563 334.134 394.126 334.134C393.526 334.134 392.989 333.98 392.515 333.672C392.041 333.364 391.666 332.916 391.391 332.33C391.116 331.743 390.979 331.03 390.979 330.192C390.979 329.343 391.118 328.627 391.396 328.044C391.678 327.457 392.058 327.015 392.535 326.717C393.012 326.415 393.544 326.264 394.131 326.264C394.578 326.264 394.946 326.34 395.234 326.493C395.523 326.642 395.751 326.823 395.92 327.035C396.089 327.244 396.22 327.441 396.313 327.626H396.423V326.364H398.192V336.864H396.388ZM394.628 332.658C395.009 332.658 395.334 332.555 395.602 332.349C395.871 332.141 396.075 331.851 396.214 331.479C396.353 331.108 396.423 330.676 396.423 330.182C396.423 329.688 396.353 329.259 396.214 328.894C396.078 328.53 395.876 328.246 395.607 328.044C395.342 327.842 395.016 327.741 394.628 327.741C394.227 327.741 393.892 327.845 393.624 328.054C393.355 328.263 393.153 328.551 393.017 328.919C392.881 329.287 392.813 329.708 392.813 330.182C392.813 330.659 392.881 331.085 393.017 331.46C393.156 331.831 393.36 332.124 393.629 332.339C393.9 332.552 394.233 332.658 394.628 332.658ZM404.909 330.788V326.364H406.709V334H404.964V332.643H404.884C404.712 333.07 404.429 333.42 404.034 333.692C403.643 333.964 403.161 334.099 402.587 334.099C402.087 334.099 401.644 333.988 401.26 333.766C400.879 333.541 400.58 333.214 400.365 332.787C400.15 332.356 400.042 331.836 400.042 331.226V326.364H401.842V330.947C401.842 331.431 401.974 331.816 402.239 332.101C402.504 332.386 402.853 332.528 403.283 332.528C403.549 332.528 403.805 332.464 404.054 332.335C404.303 332.205 404.506 332.013 404.665 331.758C404.828 331.499 404.909 331.176 404.909 330.788ZM408.559 334V326.364H410.359V334H408.559ZM409.464 325.28C409.179 325.28 408.934 325.185 408.729 324.996C408.523 324.804 408.42 324.574 408.42 324.305C408.42 324.034 408.523 323.803 408.729 323.614C408.934 323.422 409.179 323.326 409.464 323.326C409.753 323.326 409.998 323.422 410.2 323.614C410.406 323.803 410.508 324.034 410.508 324.305C410.508 324.574 410.406 324.804 410.2 324.996C409.998 325.185 409.753 325.28 409.464 325.28ZM419.031 326.364L416.311 334H414.323L411.603 326.364H413.522L415.277 332.036H415.357L417.117 326.364H419.031ZM422.255 334.154C421.771 334.154 421.335 334.068 420.947 333.896C420.563 333.72 420.258 333.461 420.033 333.12C419.811 332.779 419.7 332.358 419.7 331.857C419.7 331.426 419.779 331.07 419.938 330.788C420.097 330.507 420.314 330.281 420.589 330.112C420.865 329.943 421.174 329.816 421.519 329.729C421.867 329.64 422.227 329.575 422.598 329.536C423.045 329.489 423.408 329.448 423.687 329.411C423.965 329.371 424.167 329.312 424.293 329.232C424.423 329.149 424.487 329.022 424.487 328.849V328.82C424.487 328.445 424.376 328.155 424.154 327.95C423.932 327.744 423.612 327.641 423.195 327.641C422.754 327.641 422.404 327.737 422.146 327.93C421.89 328.122 421.718 328.349 421.629 328.611L419.948 328.372C420.081 327.908 420.299 327.52 420.604 327.209C420.909 326.894 421.282 326.659 421.723 326.503C422.164 326.344 422.651 326.264 423.185 326.264C423.553 326.264 423.919 326.307 424.283 326.393C424.648 326.48 424.981 326.622 425.283 326.821C425.584 327.017 425.826 327.283 426.009 327.621C426.194 327.96 426.287 328.382 426.287 328.889V334H424.557V332.951H424.497C424.388 333.163 424.234 333.362 424.035 333.548C423.839 333.73 423.592 333.877 423.294 333.99C422.999 334.099 422.653 334.154 422.255 334.154ZM422.722 332.832C423.084 332.832 423.397 332.76 423.662 332.618C423.927 332.472 424.131 332.28 424.273 332.041C424.419 331.803 424.492 331.542 424.492 331.261V330.361C424.436 330.407 424.34 330.45 424.204 330.49C424.071 330.53 423.922 330.565 423.756 330.594C423.591 330.624 423.427 330.651 423.264 330.674C423.102 330.697 422.961 330.717 422.842 330.734C422.573 330.77 422.333 330.83 422.121 330.913C421.909 330.996 421.741 331.112 421.619 331.261C421.496 331.406 421.435 331.595 421.435 331.827C421.435 332.159 421.556 332.409 421.798 332.578C422.04 332.747 422.348 332.832 422.722 332.832ZM428.097 334V326.364H429.842V327.636H429.921C430.06 327.196 430.299 326.856 430.637 326.617C430.978 326.375 431.368 326.254 431.805 326.254C431.905 326.254 432.016 326.259 432.138 326.269C432.264 326.276 432.369 326.287 432.452 326.304V327.96C432.375 327.933 432.254 327.91 432.089 327.89C431.926 327.867 431.769 327.855 431.616 327.855C431.288 327.855 430.993 327.926 430.732 328.069C430.473 328.208 430.269 328.402 430.12 328.651C429.971 328.899 429.896 329.186 429.896 329.511V334H428.097Z" fill="#181C4F"/>
</g>
</g>
</g>
</g>
</g>
<defs>
<filter id="filter0_d_1_6932" x="-7" y="-7" width="549.333" height="389" filterUnits="userSpaceOnUse" color-interpolation-filters="sRGB">
<feFlood flood-opacity="0" result="BackgroundImageFix"/>
<feColorMatrix in="SourceAlpha" type="matrix" values="0 0 0 0 0 0 0 0 0 0 0 0 0 0 0 0 0 0 127 0" result="hardAlpha"/>
<feOffset dx="1" dy="1"/>
<feGaussianBlur stdDeviation="4"/>
<feComposite in2="hardAlpha" operator="out"/>
<feColorMatrix type="matrix" values="0 0 0 0 0 0 0 0 0 0 0 0 0 0 0 0 0 0 0.16 0"/>
<feBlend mode="normal" in2="BackgroundImageFix" result="effect1_dropShadow_1_6932"/>
<feBlend mode="normal" in="SourceGraphic" in2="effect1_dropShadow_1_6932" result="shape"/>
</filter>
</defs>
</svg>
