<svg width="295" height="32" viewBox="0 0 295 32" fill="none" xmlns="http://www.w3.org/2000/svg">
<mask id="mask0_1_8613" style="mask-type:alpha" maskUnits="userSpaceOnUse" x="8" y="8" width="16" height="16">
<path d="M19.3335 20L15.3335 16L19.3335 12" stroke="black" stroke-width="0.8" stroke-linecap="round" stroke-linejoin="round"/>
<path d="M12.6665 12V20" stroke="black" stroke-width="0.8" stroke-linecap="round" stroke-linejoin="round"/>
</mask>
<g mask="url(#mask0_1_8613)">
<rect x="8" y="8" width="16" height="16" fill="#181C4F"/>
</g>
<mask id="mask1_1_8613" style="mask-type:alpha" maskUnits="userSpaceOnUse" x="56" y="8" width="16" height="16">
<path d="M66 20L62 16L66 12" stroke="black" stroke-width="0.8" stroke-linecap="round" stroke-linejoin="round"/>
</mask>
<g mask="url(#mask1_1_8613)">
<rect x="56" y="8" width="16" height="16" fill="#181C4F"/>
</g>
<path d="M82.3118 21H80.343L83.9276 10.8182H86.2045L89.794 21H87.8253L85.1058 12.9062H85.0263L82.3118 21ZM82.3764 17.0078H87.7457V18.4893H82.3764V17.0078ZM92.8553 16.5256V21H91.0556V13.3636H92.7757V14.6612H92.8652C93.0409 14.2337 93.321 13.8939 93.7054 13.642C94.0932 13.3902 94.5721 13.2642 95.1422 13.2642C95.6692 13.2642 96.1283 13.3769 96.5194 13.6023C96.9138 13.8277 97.2187 14.1541 97.4341 14.5817C97.6529 15.0092 97.7606 15.5279 97.7573 16.1378V21H95.9576V16.4162C95.9576 15.9058 95.825 15.5064 95.5598 15.218C95.298 14.9297 94.9351 14.7855 94.4711 14.7855C94.1562 14.7855 93.8761 14.8551 93.6309 14.9943C93.3889 15.1302 93.1983 15.3274 93.0591 15.5859C92.9232 15.8445 92.8553 16.1577 92.8553 16.5256ZM103.4 13.3636V14.7557H99.0101V13.3636H103.4ZM100.094 11.5341H101.894V18.7031C101.894 18.9451 101.93 19.1307 102.003 19.2599C102.079 19.3859 102.179 19.4721 102.301 19.5185C102.424 19.5649 102.56 19.5881 102.709 19.5881C102.822 19.5881 102.924 19.5798 103.017 19.5632C103.113 19.5466 103.186 19.5317 103.236 19.5185L103.539 20.9254C103.443 20.9586 103.306 20.995 103.127 21.0348C102.951 21.0746 102.735 21.0978 102.48 21.1044C102.03 21.1177 101.624 21.0497 101.262 20.9006C100.901 20.7481 100.614 20.5128 100.402 20.1946C100.193 19.8764 100.091 19.4787 100.094 19.0014V11.5341ZM108.204 21.1491C107.438 21.1491 106.777 20.9901 106.22 20.6719C105.667 20.3504 105.241 19.8963 104.942 19.3097C104.644 18.7197 104.495 18.0253 104.495 17.2266C104.495 16.4411 104.644 15.7517 104.942 15.1584C105.244 14.5618 105.665 14.0978 106.205 13.7663C106.746 13.4316 107.38 13.2642 108.109 13.2642C108.58 13.2642 109.024 13.3404 109.442 13.4929C109.863 13.642 110.234 13.8741 110.555 14.1889C110.88 14.5038 111.135 14.9048 111.321 15.392C111.507 15.8759 111.599 16.4527 111.599 17.1222V17.674H105.34V16.4609H109.874C109.871 16.1162 109.796 15.8097 109.651 15.5412C109.505 15.2694 109.301 15.0556 109.039 14.8999C108.781 14.7441 108.479 14.6662 108.134 14.6662C107.766 14.6662 107.443 14.7557 107.165 14.9347C106.886 15.1103 106.669 15.3423 106.513 15.6307C106.361 15.9157 106.283 16.2289 106.28 16.5703V17.6293C106.28 18.0734 106.361 18.4545 106.523 18.7727C106.686 19.0876 106.913 19.3295 107.205 19.4986C107.496 19.6643 107.838 19.7472 108.229 19.7472C108.491 19.7472 108.728 19.7107 108.94 19.6378C109.152 19.5616 109.336 19.4505 109.491 19.3047C109.647 19.1589 109.765 18.9782 109.844 18.7628L111.525 18.9517C111.419 19.3958 111.217 19.7836 110.918 20.1151C110.623 20.4432 110.246 20.6984 109.785 20.8807C109.324 21.0597 108.797 21.1491 108.204 21.1491ZM113.122 21V13.3636H114.867V14.6364H114.947C115.086 14.1955 115.324 13.8558 115.662 13.6172C116.004 13.3752 116.393 13.2543 116.831 13.2543C116.93 13.2543 117.041 13.2592 117.164 13.2692C117.29 13.2758 117.394 13.2874 117.477 13.304V14.9595C117.401 14.933 117.28 14.9098 117.114 14.8899C116.952 14.8667 116.794 14.8551 116.642 14.8551C116.314 14.8551 116.019 14.9264 115.757 15.0689C115.498 15.2081 115.295 15.402 115.145 15.6506C114.996 15.8991 114.922 16.1858 114.922 16.5107V21H113.122ZM118.673 21V13.3636H120.472V21H118.673ZM119.578 12.2798C119.293 12.2798 119.047 12.1854 118.842 11.9964C118.636 11.8042 118.534 11.5739 118.534 11.3054C118.534 11.0336 118.636 10.8033 118.842 10.6143C119.047 10.4221 119.293 10.326 119.578 10.326C119.866 10.326 120.111 10.4221 120.313 10.6143C120.519 10.8033 120.622 11.0336 120.622 11.3054C120.622 11.5739 120.519 11.8042 120.313 11.9964C120.111 12.1854 119.866 12.2798 119.578 12.2798ZM125.654 21.1491C124.908 21.1491 124.262 20.9851 123.715 20.657C123.168 20.3288 122.744 19.8698 122.442 19.2798C122.144 18.6899 121.995 18.0005 121.995 17.2116C121.995 16.4228 122.144 15.7318 122.442 15.1385C122.744 14.5452 123.168 14.0845 123.715 13.7564C124.262 13.4283 124.908 13.2642 125.654 13.2642C126.4 13.2642 127.046 13.4283 127.593 13.7564C128.14 14.0845 128.563 14.5452 128.861 15.1385C129.162 15.7318 129.313 16.4228 129.313 17.2116C129.313 18.0005 129.162 18.6899 128.861 19.2798C128.563 19.8698 128.14 20.3288 127.593 20.657C127.046 20.9851 126.4 21.1491 125.654 21.1491ZM125.664 19.7074C126.068 19.7074 126.406 19.5964 126.678 19.3743C126.95 19.1489 127.152 18.8473 127.285 18.4695C127.421 18.0916 127.489 17.6707 127.489 17.2067C127.489 16.7393 127.421 16.3168 127.285 15.9389C127.152 15.5578 126.95 15.2545 126.678 15.0291C126.406 14.8037 126.068 14.6911 125.664 14.6911C125.25 14.6911 124.905 14.8037 124.63 15.0291C124.358 15.2545 124.154 15.5578 124.018 15.9389C123.886 16.3168 123.82 16.7393 123.82 17.2067C123.82 17.6707 123.886 18.0916 124.018 18.4695C124.154 18.8473 124.358 19.1489 124.63 19.3743C124.905 19.5964 125.25 19.7074 125.664 19.7074ZM130.841 21V13.3636H132.586V14.6364H132.665C132.805 14.1955 133.043 13.8558 133.381 13.6172C133.723 13.3752 134.112 13.2543 134.55 13.2543C134.649 13.2543 134.76 13.2592 134.883 13.2692C135.009 13.2758 135.113 13.2874 135.196 13.304V14.9595C135.12 14.933 134.999 14.9098 134.833 14.8899C134.671 14.8667 134.513 14.8551 134.361 14.8551C134.032 14.8551 133.738 14.9264 133.476 15.0689C133.217 15.2081 133.013 15.402 132.864 15.6506C132.715 15.8991 132.64 16.1858 132.64 16.5107V21H130.841Z" fill="#181C4F"/>
<path d="M161.004 21V10.8182H164.822C165.605 10.8182 166.261 10.964 166.791 11.2557C167.325 11.5473 167.728 11.9484 167.999 12.4588C168.274 12.9659 168.412 13.5426 168.412 14.1889C168.412 14.8419 168.274 15.4219 167.999 15.929C167.724 16.4361 167.318 16.8355 166.781 17.1271C166.244 17.4155 165.583 17.5597 164.798 17.5597H162.267V16.0433H164.549C165.006 16.0433 165.381 15.9638 165.673 15.8047C165.964 15.6456 166.18 15.4268 166.319 15.1484C166.461 14.87 166.533 14.5502 166.533 14.1889C166.533 13.8277 166.461 13.5095 166.319 13.2344C166.18 12.9593 165.963 12.7455 165.668 12.593C165.376 12.4373 165 12.3594 164.539 12.3594H162.849V21H161.004ZM169.934 21V13.3636H171.68V14.6364H171.759C171.898 14.1955 172.137 13.8558 172.475 13.6172C172.816 13.3752 173.206 13.2543 173.643 13.2543C173.743 13.2543 173.854 13.2592 173.976 13.2692C174.102 13.2758 174.207 13.2874 174.29 13.304V14.9595C174.213 14.933 174.092 14.9098 173.927 14.8899C173.764 14.8667 173.607 14.8551 173.454 14.8551C173.126 14.8551 172.831 14.9264 172.569 15.0689C172.311 15.2081 172.107 15.402 171.958 15.6506C171.809 15.8991 171.734 16.1858 171.734 16.5107V21H169.934ZM178.502 21.1491C177.756 21.1491 177.11 20.9851 176.563 20.657C176.016 20.3288 175.592 19.8698 175.29 19.2798C174.992 18.6899 174.843 18.0005 174.843 17.2116C174.843 16.4228 174.992 15.7318 175.29 15.1385C175.592 14.5452 176.016 14.0845 176.563 13.7564C177.11 13.4283 177.756 13.2642 178.502 13.2642C179.248 13.2642 179.894 13.4283 180.441 13.7564C180.988 14.0845 181.41 14.5452 181.708 15.1385C182.01 15.7318 182.161 16.4228 182.161 17.2116C182.161 18.0005 182.01 18.6899 181.708 19.2798C181.41 19.8698 180.988 20.3288 180.441 20.657C179.894 20.9851 179.248 21.1491 178.502 21.1491ZM178.512 19.7074C178.916 19.7074 179.254 19.5964 179.526 19.3743C179.798 19.1489 180 18.8473 180.132 18.4695C180.268 18.0916 180.336 17.6707 180.336 17.2067C180.336 16.7393 180.268 16.3168 180.132 15.9389C180 15.5578 179.798 15.2545 179.526 15.0291C179.254 14.8037 178.916 14.6911 178.512 14.6911C178.097 14.6911 177.753 14.8037 177.478 15.0291C177.206 15.2545 177.002 15.5578 176.866 15.9389C176.734 16.3168 176.667 16.7393 176.667 17.2067C176.667 17.6707 176.734 18.0916 176.866 18.4695C177.002 18.8473 177.206 19.1489 177.478 19.3743C177.753 19.5964 178.097 19.7074 178.512 19.7074ZM177.811 12.3594L178.924 10.0874H180.684L179.158 12.3594H177.811ZM184.873 13.3636L186.414 16.1825L187.98 13.3636H189.884L187.582 17.1818L189.924 21H188.03L186.414 18.2507L184.813 21H182.904L185.231 17.1818L182.964 13.3636H184.873ZM191.276 21V13.3636H193.076V21H191.276ZM192.181 12.2798C191.896 12.2798 191.651 12.1854 191.445 11.9964C191.24 11.8042 191.137 11.5739 191.137 11.3054C191.137 11.0336 191.24 10.8033 191.445 10.6143C191.651 10.4221 191.896 10.326 192.181 10.326C192.469 10.326 192.715 10.4221 192.917 10.6143C193.122 10.8033 193.225 11.0336 193.225 11.3054C193.225 11.5739 193.122 11.8042 192.917 11.9964C192.715 12.1854 192.469 12.2798 192.181 12.2798ZM194.927 21V13.3636H196.647V14.6612H196.736C196.895 14.2237 197.159 13.8823 197.527 13.6371C197.895 13.3885 198.334 13.2642 198.844 13.2642C199.361 13.2642 199.797 13.3902 200.152 13.642C200.51 13.8906 200.762 14.2304 200.907 14.6612H200.987C201.156 14.237 201.441 13.8989 201.842 13.647C202.247 13.3918 202.725 13.2642 203.279 13.2642C203.982 13.2642 204.555 13.4863 204.999 13.9304C205.443 14.3745 205.665 15.0225 205.665 15.8743V21H203.861V16.1527C203.861 15.6787 203.735 15.3324 203.483 15.1136C203.231 14.8916 202.923 14.7805 202.558 14.7805C202.124 14.7805 201.784 14.9164 201.539 15.1882C201.297 15.4567 201.176 15.8063 201.176 16.2372V21H199.411V16.0781C199.411 15.6837 199.292 15.3688 199.053 15.1335C198.818 14.8982 198.51 14.7805 198.128 14.7805C197.87 14.7805 197.635 14.8468 197.422 14.9794C197.21 15.1087 197.041 15.2926 196.915 15.5312C196.789 15.7666 196.726 16.0417 196.726 16.3565V21H194.927ZM209.689 21.1541C209.205 21.1541 208.769 21.0679 208.381 20.8956C207.997 20.7199 207.692 20.4614 207.466 20.12C207.244 19.7786 207.133 19.3577 207.133 18.8572C207.133 18.4264 207.213 18.0701 207.372 17.7884C207.531 17.5066 207.748 17.2812 208.023 17.1122C208.298 16.9432 208.608 16.8156 208.953 16.7294C209.301 16.6399 209.66 16.5753 210.032 16.5355C210.479 16.4891 210.842 16.4477 211.12 16.4112C211.399 16.3714 211.601 16.3118 211.727 16.2322C211.856 16.1494 211.921 16.0218 211.921 15.8494V15.8196C211.921 15.4451 211.81 15.1551 211.588 14.9496C211.366 14.7441 211.046 14.6413 210.628 14.6413C210.187 14.6413 209.838 14.7375 209.579 14.9297C209.324 15.1219 209.152 15.349 209.062 15.6108L207.382 15.3722C207.514 14.9081 207.733 14.5204 208.038 14.2088C208.343 13.8939 208.716 13.6586 209.157 13.5028C209.597 13.3438 210.085 13.2642 210.618 13.2642C210.986 13.2642 211.352 13.3073 211.717 13.3935C212.082 13.4796 212.415 13.6222 212.716 13.821C213.018 14.0166 213.26 14.2834 213.442 14.6214C213.628 14.9595 213.721 15.3821 213.721 15.8892V21H211.99V19.951H211.931C211.821 20.1631 211.667 20.362 211.468 20.5476C211.273 20.7299 211.026 20.8774 210.728 20.9901C210.433 21.0994 210.086 21.1541 209.689 21.1541ZM210.156 19.8317C210.517 19.8317 210.83 19.7604 211.096 19.6179C211.361 19.4721 211.565 19.2798 211.707 19.0412C211.853 18.8026 211.926 18.5424 211.926 18.2607V17.3608C211.869 17.4072 211.773 17.4503 211.637 17.4901C211.505 17.5298 211.356 17.5646 211.19 17.5945C211.024 17.6243 210.86 17.6508 210.698 17.674C210.535 17.6972 210.395 17.7171 210.275 17.7337C210.007 17.7701 209.766 17.8298 209.554 17.9126C209.342 17.9955 209.175 18.1115 209.052 18.2607C208.93 18.4065 208.868 18.5954 208.868 18.8274C208.868 19.1589 208.989 19.4091 209.231 19.5781C209.473 19.7472 209.781 19.8317 210.156 19.8317Z" fill="#181C4F"/>
<mask id="mask2_1_8613" style="mask-type:alpha" maskUnits="userSpaceOnUse" x="223" y="8" width="16" height="16">
<path d="M229 20L233 16L229 12" stroke="black" stroke-width="1.2" stroke-linecap="round" stroke-linejoin="round"/>
</mask>
<g mask="url(#mask2_1_8613)">
<rect x="223" y="8" width="16" height="16" fill="#181C4F"/>
</g>
<mask id="mask3_1_8613" style="mask-type:alpha" maskUnits="userSpaceOnUse" x="271" y="8" width="16" height="16">
<path d="M275.667 20L279.667 16L275.667 12" stroke="black" stroke-width="0.8" stroke-linecap="round" stroke-linejoin="round"/>
<path d="M282.333 12V20" stroke="black" stroke-width="0.8" stroke-linecap="round" stroke-linejoin="round"/>
</mask>
<g mask="url(#mask3_1_8613)">
<rect x="271" y="8" width="16" height="16" fill="#181C4F"/>
</g>
</svg>
